Ropa Sans -Regular Italic.ufo
<glyph name="quotedbl" format="1">
  <advance width="315"/>
  <unicode hex="0022"/>
  <outline>
    <contour>
      <point x="240" y="683" type="line"/>
      <point x="205" y="429" type="line"/>
      <point x="290" y="429" type="line"/>
      <point x="325" y="683" type="line"/>
    </contour>
    <contour>
      <point x="100" y="683" type="line"/>
      <point x="65" y="429" type="line"/>
      <point x="150" y="429" type="line"/>
      <point x="185" y="683" type="line"/>
    </contour>
  </outline>
</glyph>
<glyph name="numbersign" format="1">
  <advance width="556"/>
  <unicode hex="0023"/>
  <outline>
    <contour>
      <point x="406" y="613" type="line"/>
      <point x="388" y="488" type="line"/>
      <point x="232" y="488" type="line"/>
      <point x="250" y="613" type="line"/>
      <point x="165" y="613" type="line"/>
      <point x="147" y="488" type="line"/>
      <point x="67" y="488" type="line"/>
      <point x="57" y="418" type="line"/>
      <point x="137" y="418" type="line"/>
      <point x="106" y="195" type="line"/>
      <point x="26" y="195" type="line"/>
      <point x="16" y="125" type="line"/>
      <point x="96" y="125" type="line"/>
      <point x="79" y="0" type="line"/>
      <point x="164" y="0" type="line"/>
      <point x="181" y="125" type="line"/>
      <point x="337" y="125" type="line"/>
      <point x="320" y="0" type="line"/>
      <point x="405" y="0" type="line"/>
      <point x="422" y="125" type="line"/>
      <point x="502" y="125" type="line"/>
      <point x="512" y="195" type="line"/>
      <point x="432" y="195" type="line"/>
      <point x="463" y="418" type="line"/>
      <point x="543" y="418" type="line"/>
      <point x="553" y="488" type="line"/>
      <point x="473" y="488" type="line"/>
      <point x="491" y="613" type="line"/>
    </contour>
    <contour>
      <point x="347" y="195" type="line"/>
      <point x="191" y="195" type="line"/>
      <point x="222" y="418" type="line"/>
      <point x="378" y="418" type="line"/>
    </contour>
  </outline>
</glyph>
<glyph name="dollar" format="1">
  <advance width="441"/>
  <unicode hex="0024"/>
  <outline>
    <contour>
      <point x="251" y="695" type="line"/>
      <point x="240" y="612" type="line"/>
      <point x="128" y="606"/>
      <point x="78" y="559"/>
      <point x="64" y="474" type="curve" smooth="yes"/>
      <point x="63" y="468" type="line" smooth="yes"/>
      <point x="47" y="371"/>
      <point x="75" y="307"/>
      <point x="179" y="270" type="curve" smooth="yes"/>
      <point x="235" y="250" type="line" smooth="yes"/>
      <point x="295" y="229"/>
      <point x="317" y="198"/>
      <point x="311" y="153" type="curve" smooth="yes"/>
      <point x="309" y="138" type="line" smooth="yes"/>
      <point x="302" y="87"/>
      <point x="271" y="61"/>
      <point x="182" y="61" type="curve" smooth="yes"/>
      <point x="174" y="61"/>
      <point x="168" y="61"/>
      <point x="160" y="62" type="curve"/>
      <point x="124" y="68"/>
      <point x="81" y="81"/>
      <point x="42" y="97" type="curve"/>
      <point x="31" y="19" type="line"/>
      <point x="65" y="5"/>
      <point x="112" y="-7"/>
      <point x="152" y="-11" type="curve"/>
      <point x="140" y="-94" type="line"/>
      <point x="215" y="-94" type="line"/>
      <point x="227" y="-10" type="line"/>
      <point x="341" y="1"/>
      <point x="383" y="52"/>
      <point x="395" y="135" type="curve" smooth="yes"/>
      <point x="396" y="142" type="line" smooth="yes"/>
      <point x="409" y="228"/>
      <point x="373" y="291"/>
      <point x="272" y="327" type="curve" smooth="yes"/>
      <point x="212" y="348" type="line" smooth="yes"/>
      <point x="159" y="366"/>
      <point x="139" y="401"/>
      <point x="148" y="457" type="curve" smooth="yes"/>
      <point x="149" y="463" type="line" smooth="yes"/>
      <point x="157" y="511"/>
      <point x="190" y="540"/>
      <point x="262" y="540" type="curve" smooth="yes"/>
      <point x="269" y="540"/>
      <point x="283" y="540"/>
      <point x="292" y="539" type="curve"/>
      <point x="326" y="532"/>
      <point x="366" y="521"/>
      <point x="404" y="509" type="curve"/>
      <point x="417" y="585" type="line"/>
      <point x="386" y="597"/>
      <point x="350" y="605"/>
      <point x="314" y="610" type="curve"/>
      <point x="326" y="695" type="line"/>
    </contour>
  </outline>
</glyph>
<glyph name="ampersand" format="1">
  <advance width="540"/>
  <unicode hex="0026"/>
  <outline>
    <contour>
      <point x="176" y="667"/>
      <point x="108" y="607"/>
      <point x="96" y="522" type="curve" smooth="yes"/>
      <point x="93" y="500" type="line" smooth="yes"/>
      <point x="84" y="433"/>
      <point x="116" y="369"/>
      <point x="187" y="340" type="curve"/>
      <point x="92" y="319"/>
      <point x="38" y="265"/>
      <point x="26" y="198" type="curve" smooth="yes"/>
      <point x="23" y="181" type="line" smooth="yes"/>
      <point x="3" y="70"/>
      <point x="67" y="-12"/>
      <point x="221" y="-12" type="curve" smooth="yes"/>
      <point x="285" y="-12"/>
      <point x="331" y="-2"/>
      <point x="419" y="23" type="curve"/>
      <point x="457" y="298" type="line"/>
      <point x="531" y="298" type="line"/>
      <point x="541" y="367" type="line"/>
      <point x="467" y="367" type="line"/>
      <point x="477" y="440" type="line"/>
      <point x="395" y="440" type="line"/>
      <point x="385" y="367" type="line"/>
      <point x="294" y="367" type="line" smooth="yes"/>
      <point x="212" y="367"/>
      <point x="170" y="417"/>
      <point x="176" y="483" type="curve" smooth="yes"/>
      <point x="178" y="505" type="line" smooth="yes"/>
      <point x="183" y="564"/>
      <point x="221" y="597"/>
      <point x="288" y="597" type="curve" smooth="yes"/>
      <point x="330" y="597"/>
      <point x="375" y="587"/>
      <point x="408" y="577" type="curve"/>
      <point x="420" y="651" type="line"/>
      <point x="377" y="660"/>
      <point x="331" y="667"/>
      <point x="294" y="667" type="curve" smooth="yes"/>
    </contour>
    <contour>
      <point x="344" y="75" type="line"/>
      <point x="309" y="66"/>
      <point x="272" y="61"/>
      <point x="238" y="61" type="curve" smooth="yes"/>
      <point x="142" y="61"/>
      <point x="99" y="107"/>
      <point x="108" y="172" type="curve" smooth="yes"/>
      <point x="110" y="186" type="line" smooth="yes"/>
      <point x="120" y="254"/>
      <point x="178" y="298"/>
      <point x="278" y="298" type="curve" smooth="yes"/>
      <point x="375" y="298" type="line"/>
    </contour>
  </outline>
</glyph>
<glyph name="asterisk" format="1">
  <advance width="410"/>
  <unicode hex="002A"/>
  <outline>
    <contour>
      <point x="207" y="695" type="line"/>
      <point x="217" y="584" type="line"/>
      <point x="115" y="627" type="line"/>
      <point x="92" y="561" type="line"/>
      <point x="202" y="537" type="line"/>
      <point x="128" y="452" type="line"/>
      <point x="184" y="410" type="line"/>
      <point x="241" y="507" type="line"/>
      <point x="298" y="411" type="line"/>
      <point x="355" y="452" type="line"/>
      <point x="281" y="536" type="line"/>
      <point x="392" y="561" type="line"/>
      <point x="369" y="627" type="line"/>
      <point x="266" y="583" type="line"/>
      <point x="276" y="695" type="line"/>
    </contour>
  </outline>
</glyph>
<glyph name="plus" format="1">
  <advance width="390"/>
  <unicode hex="002B"/>
  <outline>
    <contour>
      <point x="185" y="488" type="line"/>
      <point x="164" y="336" type="line"/>
      <point x="24" y="336" type="line"/>
      <point x="14" y="265" type="line"/>
      <point x="154" y="265" type="line"/>
      <point x="132" y="113" type="line"/>
      <point x="208" y="113" type="line"/>
      <point x="230" y="265" type="line"/>
      <point x="370" y="265" type="line"/>
      <point x="380" y="336" type="line"/>
      <point x="240" y="336" type="line"/>
      <point x="261" y="488" type="line"/>
    </contour>
  </outline>
</glyph>
<glyph name="comma" format="1">
  <advance width="220"/>
  <unicode hex="002C"/>
  <outline>
    <contour>
      <point x="43" y="108"/>
      <point x="27" y="95"/>
      <point x="23" y="70" type="curve" smooth="yes"/>
      <point x="19" y="42" type="line" smooth="yes"/>
      <point x="16" y="19"/>
      <point x="27" y="-4"/>
      <point x="49" y="-9" type="curve"/>
      <point x="-8" y="-161" type="line"/>
      <point x="52" y="-161" type="line"/>
      <point x="116" y="-19" type="line" smooth="yes"/>
      <point x="123" y="-3"/>
      <point x="127" y="6"/>
      <point x="130" y="26" type="curve" smooth="yes"/>
      <point x="133" y="51" type="line" smooth="yes"/>
      <point x="138" y="86"/>
      <point x="115" y="108"/>
      <point x="79" y="108" type="curve" smooth="yes"/>
    </contour>
  </outline>
</glyph>
<glyph name="period" format="1">
  <advance width="221"/>
  <unicode hex="002E"/>
  <outline>
    <contour>
      <point x="43" y="108"/>
      <point x="26" y="94"/>
      <point x="22" y="59" type="curve" smooth="yes"/>
      <point x="19" y="36" type="line" smooth="yes"/>
      <point x="15" y="9"/>
      <point x="34" y="-12"/>
      <point x="71" y="-12" type="curve" smooth="yes"/>
      <point x="110" y="-12"/>
      <point x="126" y="3"/>
      <point x="130" y="30" type="curve" smooth="yes"/>
      <point x="134" y="59" type="line" smooth="yes"/>
      <point x="138" y="88"/>
      <point x="118" y="108"/>
      <point x="81" y="108" type="curve" smooth="yes"/>
    </contour>
  </outline>
</glyph>
<glyph name="one" format="1">
  <advance width="312"/>
  <unicode hex="0031"/>
  <outline>
    <contour>
      <point x="206" y="601" type="line"/>
      <point x="35" y="535" type="line"/>
      <point x="41" y="462" type="line"/>
      <point x="182" y="519" type="line"/>
      <point x="184" y="519" type="line"/>
      <point x="112" y="0" type="line"/>
      <point x="197" y="0" type="line"/>
      <point x="281" y="601" type="line"/>
    </contour>
  </outline>
</glyph>
<glyph name="four" format="1">
  <advance width="423"/>
  <unicode hex="0034"/>
  <outline>
    <contour>
      <point x="299" y="601" type="line"/>
      <point x="-17" y="188" type="line"/>
      <point x="-25" y="129" type="line"/>
      <point x="247" y="129" type="line"/>
      <point x="229" y="0" type="line"/>
      <point x="312" y="0" type="line"/>
      <point x="330" y="129" type="line"/>
      <point x="391" y="129" type="line"/>
      <point x="400" y="199" type="line"/>
      <point x="339" y="199" type="line"/>
      <point x="396" y="601" type="line"/>
    </contour>
    <contour>
      <point x="259" y="213" type="line"/>
      <point x="257" y="199" type="line"/>
      <point x="75" y="199" type="line"/>
      <point x="300" y="504" type="line"/>
    </contour>
  </outline>
</glyph>
<glyph name="five" format="1">
  <advance width="441"/>
  <unicode hex="0035"/>
  <outline>
    <contour>
      <point x="94" y="604" type="line"/>
      <point x="44" y="246" type="line"/>
      <point x="109" y="246" type="line"/>
      <point x="157" y="292"/>
      <point x="197" y="311"/>
      <point x="246" y="311" type="curve" smooth="yes"/>
      <point x="294" y="311"/>
      <point x="320" y="279"/>
      <point x="309" y="202" type="curve" smooth="yes"/>
      <point x="305" y="175" type="line" smooth="yes"/>
      <point x="295" y="101"/>
      <point x="255" y="60"/>
      <point x="180" y="60" type="curve" smooth="yes"/>
      <point x="146" y="60"/>
      <point x="75" y="75"/>
      <point x="31" y="90" type="curve"/>
      <point x="21" y="16" type="line"/>
      <point x="63" y="1"/>
      <point x="127" y="-12"/>
      <point x="177" y="-12" type="curve" smooth="yes"/>
      <point x="305" y="-12"/>
      <point x="373" y="51"/>
      <point x="390" y="175" type="curve"/>
      <point x="393" y="199" type="line" smooth="yes"/>
      <point x="409" y="329"/>
      <point x="361" y="382"/>
      <point x="268" y="382" type="curve" smooth="yes"/>
      <point x="228" y="382"/>
      <point x="178" y="365"/>
      <point x="136" y="334" type="curve"/>
      <point x="169" y="532" type="line"/>
      <point x="392" y="532" type="line"/>
      <point x="402" y="604" type="line"/>
    </contour>
  </outline>
</glyph>
<glyph name="seven" format="1">
  <advance width="378"/>
  <unicode hex="0037"/>
  <outline>
    <contour>
      <point x="48" y="600" type="line"/>
      <point x="38" y="527" type="line"/>
      <point x="309" y="527" type="line"/>
      <point x="309" y="525" type="line"/>
      <point x="12" y="0" type="line"/>
      <point x="101" y="0" type="line"/>
      <point x="401" y="539" type="line"/>
      <point x="409" y="600" type="line"/>
    </contour>
  </outline>
</glyph>
<glyph name="less" format="1">
  <advance width="390"/>
  <unicode hex="003C"/>
  <outline>
    <contour>
      <point x="21" y="334" type="line"/>
      <point x="11" y="259" type="line"/>
      <point x="348" y="99" type="line"/>
      <point x="360" y="182" type="line"/>
      <point x="100" y="297" type="line"/>
      <point x="392" y="411" type="line"/>
      <point x="404" y="494" type="line"/>
    </contour>
  </outline>
</glyph>
<glyph name="equal" format="1">
  <advance width="390"/>
  <unicode hex="003D"/>
  <outline>
    <contour>
      <point x="37" y="421" type="line"/>
      <point x="27" y="351" type="line"/>
      <point x="381" y="351" type="line"/>
      <point x="391" y="421" type="line"/>
    </contour>
    <contour>
      <point x="13" y="250" type="line"/>
      <point x="3" y="180" type="line"/>
      <point x="357" y="180" type="line"/>
      <point x="367" y="250" type="line"/>
    </contour>
  </outline>
</glyph>
<glyph name="greater" format="1">
  <advance width="390"/>
  <unicode hex="003E"/>
  <outline>
    <contour>
      <point x="32" y="411" type="line"/>
      <point x="292" y="297" type="line"/>
      <point x="0" y="182" type="line"/>
      <point x="-12" y="99" type="line"/>
      <point x="371" y="259" type="line"/>
      <point x="381" y="334" type="line"/>
      <point x="44" y="494" type="line"/>
    </contour>
  </outline>
</glyph>
<glyph name="at" format="1">
  <advance width="930"/>
  <unicode hex="0040"/>
  <outline>
    <contour>
      <point x="184" y="695"/>
      <point x="62" y="527"/>
      <point x="62" y="288" type="curve" smooth="yes"/>
      <point x="62" y="188" type="line" smooth="yes"/>
      <point x="62" y="-54"/>
      <point x="187" y="-185"/>
      <point x="457" y="-185" type="curve" smooth="yes"/>
      <point x="592" y="-185" type="line"/>
      <point x="592" y="-109" type="line"/>
      <point x="457" y="-109" type="line" smooth="yes"/>
      <point x="251" y="-109"/>
      <point x="147" y="-6"/>
      <point x="147" y="188" type="curve" smooth="yes"/>
      <point x="147" y="288" type="line" smooth="yes"/>
      <point x="147" y="501"/>
      <point x="262" y="619"/>
      <point x="457" y="619" type="curve" smooth="yes"/>
      <point x="677" y="619"/>
      <point x="787" y="515"/>
      <point x="787" y="318" type="curve" smooth="yes"/>
      <point x="787" y="268" type="line" smooth="yes"/>
      <point x="787" y="164"/>
      <point x="730" y="90"/>
      <point x="660" y="90" type="curve" smooth="yes"/>
      <point x="615" y="90"/>
      <point x="607" y="118"/>
      <point x="613" y="165" type="curve" smooth="yes"/>
      <point x="654" y="475" type="line"/>
      <point x="574" y="475" type="line"/>
      <point x="567" y="425" type="line"/>
      <point x="535" y="463"/>
      <point x="493" y="487"/>
      <point x="447" y="487" type="curve" smooth="yes"/>
      <point x="368" y="487"/>
      <point x="300" y="430"/>
      <point x="285" y="312" type="curve" smooth="yes"/>
      <point x="269" y="192" type="line" smooth="yes"/>
      <point x="254" y="76"/>
      <point x="301" y="16"/>
      <point x="376" y="16" type="curve" smooth="yes"/>
      <point x="448" y="16"/>
      <point x="512" y="76"/>
      <point x="560" y="219" type="curve"/>
      <point x="563" y="220" type="line"/>
      <point x="565" y="218" type="line"/>
      <point x="533" y="111" type="line"/>
      <point x="538" y="52"/>
      <point x="584" y="15"/>
      <point x="659" y="15" type="curve" smooth="yes"/>
      <point x="792" y="15"/>
      <point x="872" y="121"/>
      <point x="872" y="268" type="curve" smooth="yes"/>
      <point x="872" y="318" type="line" smooth="yes"/>
      <point x="872" y="566"/>
      <point x="740" y="695"/>
      <point x="457" y="695" type="curve" smooth="yes"/>
    </contour>
    <contour>
      <point x="493" y="414"/>
      <point x="530" y="393"/>
      <point x="556" y="358" type="curve"/>
      <point x="548" y="294" type="line"/>
      <point x="527" y="205"/>
      <point x="477" y="92"/>
      <point x="400" y="92" type="curve" smooth="yes"/>
      <point x="361" y="92"/>
      <point x="345" y="117"/>
      <point x="356" y="203" type="curve" smooth="yes"/>
      <point x="370" y="307" type="line" smooth="yes"/>
      <point x="380" y="381"/>
      <point x="414" y="414"/>
      <point x="458" y="414" type="curve" smooth="yes"/>
    </contour>
  </outline>
</glyph>
<glyph name="A" format="1">
  <advance width="532"/>
  <unicode hex="0041"/>
  <outline>
    <contour>
      <point x="257" y="655" type="line"/>
      <point x="-23" y="0" type="line"/>
      <point x="67" y="0" type="line"/>
      <point x="90" y="50"/>
      <point x="111" y="101"/>
      <point x="131" y="152" type="curve"/>
      <point x="370" y="152" type="line"/>
      <point x="378" y="101"/>
      <point x="386" y="51"/>
      <point x="392" y="0" type="curve"/>
      <point x="483" y="0" type="line"/>
      <point x="362" y="655" type="line"/>
    </contour>
    <contour>
      <point x="320" y="461"/>
      <point x="340" y="344"/>
      <point x="358" y="228" type="curve"/>
      <point x="163" y="228" type="line"/>
      <point x="210" y="343"/>
      <point x="255" y="459"/>
      <point x="299" y="576" type="curve"/>
    </contour>
    <contour>
      <point x="479" y="10" type="move" name="ogonek"/>
    </contour>
    <contour>
      <point x="319" y="655" type="move" name="top"/>
    </contour>
    <contour>
      <point x="200" y="655" type="move" name="topleft"/>
    </contour>
  </outline>
</glyph>
<glyph name="B" format="1">
  <advance width="528"/>
  <unicode hex="0042"/>
  <outline>
    <contour>
      <point x="38" y="-3" type="line"/>
      <point x="130" y="-10"/>
      <point x="175" y="-12"/>
      <point x="232" y="-12" type="curve" smooth="yes"/>
      <point x="385" y="-12"/>
      <point x="461" y="53"/>
      <point x="476" y="163" type="curve" smooth="yes"/>
      <point x="478" y="178" type="line" smooth="yes"/>
      <point x="489" y="259"/>
      <point x="444" y="321"/>
      <point x="373" y="340" type="curve"/>
      <point x="447" y="364"/>
      <point x="484" y="417"/>
      <point x="491" y="492" type="curve" smooth="yes"/>
      <point x="492" y="503" type="line" smooth="yes"/>
      <point x="500" y="596"/>
      <point x="430" y="667"/>
      <point x="284" y="667" type="curve" smooth="yes"/>
      <point x="232" y="667"/>
      <point x="163" y="664"/>
      <point x="120" y="662" type="curve"/>
    </contour>
    <contour>
      <point x="159" y="298" type="line"/>
      <point x="263" y="298" type="line" smooth="yes"/>
      <point x="363" y="298"/>
      <point x="406" y="256"/>
      <point x="395" y="186" type="curve" smooth="yes"/>
      <point x="393" y="173" type="line" smooth="yes"/>
      <point x="382" y="101"/>
      <point x="337" y="62"/>
      <point x="230" y="62" type="curve" smooth="yes"/>
      <point x="204" y="62"/>
      <point x="181" y="63"/>
      <point x="131" y="68" type="curve"/>
    </contour>
    <contour>
      <point x="196" y="591" type="line"/>
      <point x="225" y="593"/>
      <point x="251" y="594"/>
      <point x="273" y="594" type="curve" smooth="yes"/>
      <point x="375" y="594"/>
      <point x="413" y="559"/>
      <point x="405" y="489" type="curve" smooth="yes"/>
      <point x="404" y="480" type="line" smooth="yes"/>
      <point x="396" y="410"/>
      <point x="351" y="367"/>
      <point x="271" y="367" type="curve" smooth="yes"/>
      <point x="168" y="367" type="line"/>
    </contour>
  </outline>
</glyph>
<glyph name="D" format="1">
  <advance width="573"/>
  <unicode hex="0044"/>
  <outline>
    <contour>
      <point x="197" y="593" type="line"/>
      <point x="223" y="594"/>
      <point x="265" y="595"/>
      <point x="285" y="595" type="curve" smooth="yes"/>
      <point x="392" y="595"/>
      <point x="450" y="531"/>
      <point x="434" y="402" type="curve" smooth="yes"/>
      <point x="412" y="227" type="line" smooth="yes"/>
      <point x="399" y="121"/>
      <point x="326" y="61"/>
      <point x="224" y="61" type="curve" smooth="yes"/>
      <point x="199" y="61"/>
      <point x="171" y="63"/>
      <point x="132" y="68" type="curve"/>
    </contour>
    <contour>
      <point x="39" y="-3" type="line"/>
      <point x="100" y="-9"/>
      <point x="149" y="-12"/>
      <point x="216" y="-12" type="curve" smooth="yes"/>
      <point x="389" y="-12"/>
      <point x="477" y="71"/>
      <point x="497" y="229" type="curve" smooth="yes"/>
      <point x="518" y="395" type="line" smooth="yes"/>
      <point x="539" y="563"/>
      <point x="458" y="667"/>
      <point x="291" y="667" type="curve" smooth="yes"/>
      <point x="226" y="667"/>
      <point x="163" y="665"/>
      <point x="121" y="662" type="curve"/>
    </contour>
    <contour>
      <point x="288" y="328" type="move" name="center"/>
    </contour>
    <contour>
      <point x="315" y="655" type="move" name="top"/>
    </contour>
  </outline>
</glyph>
<glyph name="E" format="1">
  <advance width="485"/>
  <unicode hex="0045"/>
  <outline>
    <contour>
      <point x="384" y="0" type="line"/>
      <point x="392" y="77" type="line"/>
      <point x="132" y="77" type="line"/>
      <point x="159" y="295" type="line"/>
      <point x="399" y="295" type="line"/>
      <point x="409" y="371" type="line"/>
      <point x="169" y="371" type="line"/>
      <point x="194" y="578" type="line"/>
      <point x="454" y="578" type="line"/>
      <point x="464" y="655" type="line"/>
      <point x="119" y="655" type="line"/>
      <point x="39" y="0" type="line"/>
    </contour>
    <contour>
      <point x="436" y="10" type="move" name="ogonek"/>
    </contour>
    <contour>
      <point x="302" y="655" type="move" name="top"/>
    </contour>
    <contour>
      <point x="89" y="655" type="move" name="topleft"/>
    </contour>
    <contour>
      <point x="243" y="0" type="move" name="bottom"/>
    </contour>
  </outline>
</glyph>
<glyph name="F" format="1">
  <advance width="464"/>
  <unicode hex="0046"/>
  <outline>
    <contour>
      <point x="119" y="655" type="line"/>
      <point x="39" y="0" type="line"/>
      <point x="124" y="0" type="line"/>
      <point x="159" y="295" type="line"/>
      <point x="355" y="295" type="line"/>
      <point x="365" y="371" type="line"/>
      <point x="169" y="371" type="line"/>
      <point x="194" y="578" type="line"/>
      <point x="454" y="578" type="line"/>
      <point x="464" y="655" type="line"/>
    </contour>
  </outline>
</glyph>
<glyph name="H" format="1">
  <advance width="580"/>
  <unicode hex="0048"/>
  <outline>
    <contour>
      <point x="469" y="0" type="line"/>
      <point x="549" y="655" type="line"/>
      <point x="464" y="655" type="line"/>
      <point x="429" y="376" type="line"/>
      <point x="169" y="376" type="line"/>
      <point x="204" y="655" type="line"/>
      <point x="119" y="655" type="line"/>
      <point x="39" y="0" type="line"/>
      <point x="124" y="0" type="line"/>
      <point x="160" y="300" type="line"/>
      <point x="420" y="300" type="line"/>
      <point x="384" y="0" type="line"/>
    </contour>
    <contour>
      <point x="290" y="328" type="move" name="center"/>
    </contour>
    <contour>
      <point x="340" y="655" type="move" name="top"/>
    </contour>
    <contour>
      <point x="89" y="655" type="move" name="topleft"/>
    </contour>
  </outline>
</glyph>
<glyph name="J" format="1">
  <advance width="287"/>
  <unicode hex="004A"/>
  <outline>
    <contour>
      <point x="171" y="655" type="line"/>
      <point x="107" y="134" type="line" smooth="yes"/>
      <point x="100" y="77"/>
      <point x="81" y="61"/>
      <point x="43" y="61" type="curve" smooth="yes"/>
      <point x="20" y="61"/>
      <point x="-10" y="67"/>
      <point x="-33" y="75" type="curve"/>
      <point x="-42" y="2" type="line"/>
      <point x="-22" y="-4"/>
      <point x="24" y="-12"/>
      <point x="50" y="-12" type="curve" smooth="yes"/>
      <point x="136" y="-12"/>
      <point x="178" y="27"/>
      <point x="192" y="137" type="curve" smooth="yes"/>
      <point x="256" y="655" type="line"/>
    </contour>
    <contour>
      <point x="223" y="655" type="move" name="top"/>
    </contour>
  </outline>
</glyph>
<glyph name="K" format="1">
  <advance width="525"/>
  <unicode hex="004B"/>
  <outline>
    <contour>
      <point x="124" y="0" type="line"/>
      <point x="164" y="325" type="line"/>
      <point x="243" y="219"/>
      <point x="303" y="126"/>
      <point x="381" y="0" type="curve"/>
      <point x="489" y="0" type="line"/>
      <point x="255" y="338" type="line"/>
      <point x="543" y="655" type="line"/>
      <point x="439" y="655" type="line"/>
      <point x="364" y="560"/>
      <point x="272" y="459"/>
      <point x="167" y="352" type="curve"/>
      <point x="204" y="655" type="line"/>
      <point x="119" y="655" type="line"/>
      <point x="39" y="0" type="line"/>
    </contour>
    <contour>
      <point x="263" y="655" type="move" name="top"/>
    </contour>
    <contour>
      <point x="238" y="0" type="move" name="bottom"/>
    </contour>
  </outline>
</glyph>
<glyph name="L" format="1">
  <advance width="450"/>
  <unicode hex="004C"/>
  <outline>
    <contour>
      <point x="384" y="0" type="line"/>
      <point x="392" y="75" type="line"/>
      <point x="132" y="75" type="line"/>
      <point x="204" y="655" type="line"/>
      <point x="119" y="655" type="line"/>
      <point x="39" y="0" type="line"/>
    </contour>
    <contour>
      <point x="221" y="0" type="move" name="bottom"/>
    </contour>
    <contour>
      <point x="176" y="655" type="move" name="top"/>
    </contour>
    <contour>
      <point x="309" y="460" type="move" name="topleft"/>
    </contour>
    <contour>
      <point x="324" y="359" type="move" name="center"/>
    </contour>
  </outline>
</glyph>
<glyph name="N" format="1">
  <advance width="582"/>
  <unicode hex="004E"/>
  <outline>
    <contour>
      <point x="471" y="0" type="line"/>
      <point x="551" y="655" type="line"/>
      <point x="467" y="655" type="line"/>
      <point x="399" y="100" type="line"/>
      <point x="352" y="290"/>
      <point x="301" y="471"/>
      <point x="244" y="655" type="curve"/>
      <point x="119" y="655" type="line"/>
      <point x="39" y="0" type="line"/>
      <point x="123" y="0" type="line"/>
      <point x="190" y="556" type="line"/>
      <point x="346" y="0" type="line"/>
    </contour>
    <contour>
      <point x="356" y="655" type="move" name="top"/>
    </contour>
    <contour>
      <point x="255" y="0" type="move" name="bottom"/>
    </contour>
  </outline>
</glyph>
<glyph name="R" format="1">
  <advance width="540"/>
  <unicode hex="0052"/>
  <outline>
    <contour>
      <point x="239" y="667"/>
      <point x="176" y="665"/>
      <point x="120" y="662" type="curve"/>
      <point x="39" y="0" type="line"/>
      <point x="124" y="0" type="line"/>
      <point x="159" y="293" type="line"/>
      <point x="200" y="287"/>
      <point x="229" y="285"/>
      <point x="265" y="285" type="curve"/>
      <point x="304" y="213"/>
      <point x="331" y="151"/>
      <point x="392" y="0" type="curve"/>
      <point x="489" y="0" type="line"/>
      <point x="352" y="296" type="line"/>
      <point x="431" y="321"/>
      <point x="485" y="382"/>
      <point x="496" y="457" type="curve" smooth="yes"/>
      <point x="499" y="477" type="line" smooth="yes"/>
      <point x="515" y="584"/>
      <point x="439" y="667"/>
      <point x="289" y="667" type="curve" smooth="yes"/>
    </contour>
    <contour>
      <point x="382" y="596"/>
      <point x="426" y="550"/>
      <point x="413" y="471" type="curve" smooth="yes"/>
      <point x="412" y="465" type="line" smooth="yes"/>
      <point x="400" y="394"/>
      <point x="351" y="352"/>
      <point x="255" y="352" type="curve" smooth="yes"/>
      <point x="233" y="352"/>
      <point x="211" y="353"/>
      <point x="167" y="358" type="curve"/>
      <point x="196" y="594" type="line"/>
      <point x="223" y="595"/>
      <point x="262" y="596"/>
      <point x="282" y="596" type="curve" smooth="yes"/>
    </contour>
    <contour>
      <point x="303" y="655" type="move" name="top"/>
    </contour>
    <contour>
      <point x="249" y="0" type="move" name="bottom"/>
    </contour>
  </outline>
</glyph>
<glyph name="T" format="1">
  <advance width="525"/>
  <unicode hex="0054"/>
  <outline>
    <contour>
      <point x="254" y="578" type="line"/>
      <point x="184" y="0" type="line"/>
      <point x="269" y="0" type="line"/>
      <point x="339" y="578" type="line"/>
      <point x="529" y="578" type="line"/>
      <point x="539" y="655" type="line"/>
      <point x="74" y="655" type="line"/>
      <point x="64" y="578" type="line"/>
    </contour>
    <contour>
      <point x="263" y="328" type="move" name="center"/>
    </contour>
    <contour>
      <point x="215" y="0" type="move" name="bottom"/>
    </contour>
  </outline>
</glyph>
<glyph name="U" format="1">
  <advance width="576"/>
  <unicode hex="0055"/>
  <outline>
    <contour>
      <point x="460" y="655" type="line"/>
      <point x="403" y="194" type="line" smooth="yes"/>
      <point x="392" y="104"/>
      <point x="347" y="65"/>
      <point x="267" y="65" type="curve" smooth="yes"/>
      <point x="181" y="65"/>
      <point x="136" y="112"/>
      <point x="147" y="197" type="curve" smooth="yes"/>
      <point x="204" y="655" type="line"/>
      <point x="119" y="655" type="line"/>
      <point x="63" y="204" type="line" smooth="yes"/>
      <point x="46" y="68"/>
      <point x="114" y="-12"/>
      <point x="261" y="-12" type="curve" smooth="yes"/>
      <point x="399" y="-12"/>
      <point x="471" y="56"/>
      <point x="489" y="201" type="curve" smooth="yes"/>
      <point x="545" y="655" type="line"/>
    </contour>
    <contour>
      <point x="518" y="10" type="move" name="ogonek"/>
    </contour>
    <contour>
      <point x="340" y="655" type="move" name="top"/>
    </contour>
  </outline>
</glyph>
<glyph name="W" format="1">
  <advance width="848"/>
  <unicode hex="0057"/>
  <outline>
    <contour>
      <point x="774" y="655" type="line"/>
      <point x="718" y="468"/>
      <point x="657" y="280"/>
      <point x="587" y="93" type="curve"/>
      <point x="571" y="280"/>
      <point x="548" y="468"/>
      <point x="521" y="655" type="curve"/>
      <point x="407" y="655" type="line"/>
      <point x="347" y="467"/>
      <point x="281" y="279"/>
      <point x="207" y="93" type="curve"/>
      <point x="195" y="281"/>
      <point x="178" y="469"/>
      <point x="156" y="655" type="curve"/>
      <point x="69" y="655" type="line"/>
      <point x="139" y="0" type="line"/>
      <point x="253" y="0" type="line"/>
      <point x="456" y="558" type="line"/>
      <point x="524" y="0" type="line"/>
      <point x="638" y="0" type="line"/>
      <point x="867" y="655" type="line"/>
    </contour>
    <contour>
      <point x="476" y="655" type="move" name="top"/>
    </contour>
  </outline>
</glyph>
<glyph name="X" format="1">
  <advance width="519"/>
  <unicode hex="0058"/>
  <outline>
    <contour>
      <point x="439" y="655" type="line"/>
      <point x="387" y="571"/>
      <point x="333" y="492"/>
      <point x="270" y="405" type="curve"/>
      <point x="236" y="488"/>
      <point x="201" y="572"/>
      <point x="165" y="655" type="curve"/>
      <point x="69" y="655" type="line"/>
      <point x="210" y="341" type="line"/>
      <point x="-23" y="0" type="line"/>
      <point x="76" y="0" type="line"/>
      <point x="138" y="89"/>
      <point x="197" y="179"/>
      <point x="256" y="268" type="curve"/>
      <point x="301" y="171"/>
      <point x="335" y="91"/>
      <point x="370" y="0" type="curve"/>
      <point x="470" y="0" type="line"/>
      <point x="319" y="335" type="line"/>
      <point x="539" y="655" type="line"/>
    </contour>
  </outline>
</glyph>
<glyph name="Y" format="1">
  <advance width="491"/>
  <unicode hex="0059"/>
  <outline>
    <contour>
      <point x="423" y="655" type="line"/>
      <point x="369" y="542"/>
      <point x="310" y="428"/>
      <point x="244" y="315" type="curve"/>
      <point x="216" y="428"/>
      <point x="184" y="542"/>
      <point x="150" y="655" type="curve"/>
      <point x="57" y="655" type="line"/>
      <point x="194" y="225" type="line"/>
      <point x="167" y="0" type="line"/>
      <point x="252" y="0" type="line"/>
      <point x="279" y="225" type="line"/>
      <point x="522" y="655" type="line"/>
    </contour>
    <contour>
      <point x="295" y="655" type="move" name="top"/>
    </contour>
    <contour>
      <point x="44" y="655" type="move" name="topleft"/>
    </contour>
  </outline>
</glyph>
<glyph name="Z" format="1">
  <advance width="480"/>
  <unicode hex="005A"/>
  <outline>
    <contour>
      <point x="399" y="0" type="line"/>
      <point x="407" y="77" type="line"/>
      <point x="115" y="77" type="line"/>
      <point x="228" y="252"/>
      <point x="345" y="423"/>
      <point x="470" y="588" type="curve"/>
      <point x="479" y="655" type="line"/>
      <point x="90" y="655" type="line"/>
      <point x="80" y="578" type="line"/>
      <point x="365" y="578" type="line"/>
      <point x="11" y="67" type="line"/>
      <point x="4" y="0" type="line"/>
    </contour>
    <contour>
      <point x="297" y="655" type="move" name="top"/>
    </contour>
  </outline>
</glyph>
<glyph name="bracketleft" format="1">
  <advance width="260"/>
  <unicode hex="005B"/>
  <outline>
    <contour>
      <point x="135" y="747" type="line"/>
      <point x="16" y="-92" type="line"/>
      <point x="221" y="-92" type="line"/>
      <point x="231" y="-22" type="line"/>
      <point x="111" y="-22" type="line"/>
      <point x="210" y="677" type="line"/>
      <point x="330" y="677" type="line"/>
      <point x="340" y="747" type="line"/>
    </contour>
  </outline>
</glyph>
<glyph name="backslash" format="1">
  <advance width="320"/>
  <unicode hex="005C"/>
  <outline>
    <contour>
      <point x="10" y="683" type="line"/>
      <point x="215" y="0" type="line"/>
      <point x="300" y="0" type="line"/>
      <point x="95" y="683" type="line"/>
    </contour>
  </outline>
</glyph>
<glyph name="bracketright" format="1">
  <advance width="260"/>
  <unicode hex="005D"/>
  <outline>
    <contour>
      <point x="50" y="747" type="line"/>
      <point x="40" y="677" type="line"/>
      <point x="160" y="677" type="line"/>
      <point x="61" y="-22" type="line"/>
      <point x="-58" y="-22" type="line"/>
      <point x="-68" y="-92" type="line"/>
      <point x="136" y="-92" type="line"/>
      <point x="255" y="747" type="line"/>
    </contour>
  </outline>
</glyph>
<glyph name="asciicircum" format="1">
  <advance width="495"/>
  <unicode hex="005E"/>
  <outline>
    <contour>
      <point x="265" y="683" type="line"/>
      <point x="81" y="403" type="line"/>
      <point x="167" y="403" type="line"/>
      <point x="294" y="604" type="line"/>
      <point x="366" y="403" type="line"/>
      <point x="446" y="403" type="line"/>
      <point x="340" y="683" type="line"/>
    </contour>
  </outline>
</glyph>
<glyph name="underscore" format="1">
  <advance width="610"/>
  <unicode hex="005F"/>
  <outline>
    <contour>
      <point x="8" y="-120" type="line"/>
      <point x="-2" y="-185" type="line"/>
      <point x="478" y="-185" type="line"/>
      <point x="488" y="-120" type="line"/>
    </contour>
  </outline>
</glyph>
<glyph name="grave" format="1">
  <advance width="240"/>
  <unicode hex="0060"/>
  <outline>
    <contour>
      <point x="139" y="546" type="line"/>
      <point x="210" y="546" type="line"/>
      <point x="120" y="685" type="line"/>
      <point x="30" y="685" type="line"/>
    </contour>
    <contour>
      <point x="181" y="488" type="move" name="_top"/>
    </contour>
  </outline>
</glyph>
<glyph name="a" format="1">
  <advance width="476"/>
  <unicode hex="0061"/>
  <outline>
    <contour>
      <point x="148" y="500"/>
      <point x="84" y="444"/>
      <point x="65" y="327" type="curve" smooth="yes"/>
      <point x="39" y="164" type="line" smooth="yes"/>
      <point x="20" y="49"/>
      <point x="71" y="-12"/>
      <point x="146" y="-12" type="curve" smooth="yes"/>
      <point x="218" y="-12"/>
      <point x="282" y="48"/>
      <point x="330" y="191" type="curve"/>
      <point x="333" y="192" type="line"/>
      <point x="335" y="190" type="line"/>
      <point x="294" y="65" type="line"/>
      <point x="285" y="0" type="line"/>
      <point x="366" y="0" type="line"/>
      <point x="434" y="488" type="line"/>
      <point x="354" y="488" type="line"/>
      <point x="348" y="438" type="line"/>
      <point x="316" y="476"/>
      <point x="273" y="500"/>
      <point x="227" y="500" type="curve" smooth="yes"/>
    </contour>
    <contour>
      <point x="272" y="427"/>
      <point x="308" y="406"/>
      <point x="334" y="373" type="curve"/>
      <point x="321" y="280" type="line"/>
      <point x="302" y="189"/>
      <point x="250" y="64"/>
      <point x="170" y="64" type="curve" smooth="yes"/>
      <point x="131" y="64"/>
      <point x="112" y="90"/>
      <point x="126" y="175" type="curve" smooth="yes"/>
      <point x="150" y="322" type="line" smooth="yes"/>
      <point x="162" y="396"/>
      <point x="194" y="427"/>
      <point x="238" y="427" type="curve" smooth="yes"/>
    </contour>
    <contour>
      <point x="428" y="10" type="move" name="ogonek"/>
    </contour>
    <contour>
      <point x="271" y="488" type="move" name="top"/>
    </contour>
  </outline>
</glyph>
<glyph name="h" format="1">
  <advance width="481"/>
  <unicode hex="0068"/>
  <outline>
    <contour>
      <point x="114" y="683" type="line"/>
      <point x="112" y="616"/>
      <point x="107" y="552"/>
      <point x="94" y="458" type="curve" smooth="yes"/>
      <point x="30" y="0" type="line"/>
      <point x="115" y="0" type="line"/>
      <point x="124" y="65" type="line" smooth="yes"/>
      <point x="151" y="262"/>
      <point x="234" y="421"/>
      <point x="304" y="421" type="curve" smooth="yes"/>
      <point x="337" y="421"/>
      <point x="354" y="398"/>
      <point x="341" y="318" type="curve" smooth="yes"/>
      <point x="291" y="0" type="line"/>
      <point x="376" y="0" type="line"/>
      <point x="424" y="316" type="line" smooth="yes"/>
      <point x="444" y="450"/>
      <point x="406" y="500"/>
      <point x="327" y="500" type="curve" smooth="yes"/>
      <point x="248" y="500"/>
      <point x="175" y="412"/>
      <point x="128" y="240" type="curve"/>
      <point x="125" y="238" type="line"/>
      <point x="122" y="240" type="line"/>
      <point x="183" y="485" type="line"/>
      <point x="187" y="514" type="line" smooth="yes"/>
      <point x="195" y="571"/>
      <point x="198" y="632"/>
      <point x="199" y="683" type="curve"/>
    </contour>
    <contour>
      <point x="241" y="244" type="move" name="center"/>
    </contour>
    <contour>
      <point x="262" y="655" type="move" name="top"/>
    </contour>
  </outline>
</glyph>
<glyph name="k" format="1">
  <advance width="448"/>
  <unicode hex="006B"/>
  <outline>
    <contour>
      <point x="114" y="683" type="line"/>
      <point x="112" y="616"/>
      <point x="107" y="552"/>
      <point x="94" y="458" type="curve" smooth="yes"/>
      <point x="30" y="0" type="line"/>
      <point x="115" y="0" type="line"/>
      <point x="127" y="92" type="line" smooth="yes"/>
      <point x="148" y="249"/>
      <point x="223" y="429"/>
      <point x="294" y="429" type="curve" smooth="yes"/>
      <point x="318" y="429"/>
      <point x="334" y="411"/>
      <point x="334" y="381" type="curve" smooth="yes"/>
      <point x="334" y="319"/>
      <point x="292" y="249"/>
      <point x="174" y="229" type="curve"/>
      <point x="213" y="153"/>
      <point x="245" y="86"/>
      <point x="284" y="0" type="curve"/>
      <point x="378" y="0" type="line"/>
      <point x="268" y="209" type="line"/>
      <point x="369" y="246"/>
      <point x="418" y="315"/>
      <point x="418" y="392" type="curve" smooth="yes"/>
      <point x="418" y="457"/>
      <point x="377" y="500"/>
      <point x="319" y="500" type="curve" smooth="yes"/>
      <point x="223" y="500"/>
      <point x="163" y="372"/>
      <point x="127" y="239" type="curve"/>
      <point x="124" y="237" type="line"/>
      <point x="121" y="239" type="line"/>
      <point x="183" y="485" type="line"/>
      <point x="187" y="514" type="line" smooth="yes"/>
      <point x="195" y="571"/>
      <point x="198" y="632"/>
      <point x="199" y="683" type="curve"/>
    </contour>
    <contour>
      <point x="195" y="0" type="move" name="bottom"/>
    </contour>
  </outline>
</glyph>
<glyph name="l" format="1">
  <advance width="225"/>
  <unicode hex="006C"/>
  <outline>
    <contour>
      <point x="114" y="683" type="line"/>
      <point x="112" y="616"/>
      <point x="107" y="552"/>
      <point x="94" y="458" type="curve" smooth="yes"/>
      <point x="30" y="0" type="line"/>
      <point x="115" y="0" type="line"/>
      <point x="180" y="464" type="line" smooth="yes"/>
      <point x="194" y="564"/>
      <point x="198" y="632"/>
      <point x="199" y="683" type="curve"/>
    </contour>
    <contour>
      <point x="60" y="0" type="move" name="bottom"/>
    </contour>
    <contour>
      <point x="162" y="655" type="move" name="top"/>
    </contour>
    <contour>
      <point x="205" y="488" type="move" name="topright"/>
    </contour>
    <contour>
      <point x="253" y="440" type="move" name="center"/>
    </contour>
  </outline>
</glyph>
<glyph name="o" format="1">
  <advance width="472"/>
  <unicode hex="006F"/>
  <outline>
    <contour>
      <point x="309" y="161" type="line"/>
      <point x="300" y="91"/>
      <point x="266" y="59"/>
      <point x="208" y="59" type="curve" smooth="yes"/>
      <point x="152" y="59"/>
      <point x="117" y="98"/>
      <point x="127" y="165" type="curve" smooth="yes"/>
      <point x="150" y="327" type="line" smooth="yes"/>
      <point x="160" y="398"/>
      <point x="196" y="429"/>
      <point x="252" y="429" type="curve" smooth="yes"/>
      <point x="309" y="429"/>
      <point x="342" y="390"/>
      <point x="332" y="322" type="curve" smooth="yes"/>
    </contour>
    <contour>
      <point x="416" y="315" type="line"/>
      <point x="432" y="426"/>
      <point x="378" y="500"/>
      <point x="256" y="500" type="curve" smooth="yes"/>
      <point x="148" y="500"/>
      <point x="79" y="434"/>
      <point x="63" y="316" type="curve" smooth="yes"/>
      <point x="43" y="172" type="line" smooth="yes"/>
      <point x="27" y="60"/>
      <point x="82" y="-12"/>
      <point x="205" y="-12" type="curve" smooth="yes"/>
      <point x="316" y="-12"/>
      <point x="381" y="56"/>
      <point x="397" y="176" type="curve" smooth="yes"/>
    </contour>
    <contour>
      <point x="267" y="488" type="move" name="top"/>
    </contour>
  </outline>
</glyph>
<glyph name="t" format="1">
  <advance width="341"/>
  <unicode hex="0074"/>
  <outline>
    <contour>
      <point x="166" y="618" type="line"/>
      <point x="120" y="483" type="line"/>
      <point x="40" y="468" type="line"/>
      <point x="33" y="418" type="line"/>
      <point x="104" y="418" type="line"/>
      <point x="64" y="139" type="line" smooth="yes"/>
      <point x="49" y="31"/>
      <point x="91" y="-12"/>
      <point x="185" y="-12" type="curve" smooth="yes"/>
      <point x="213" y="-12"/>
      <point x="255" y="-1"/>
      <point x="277" y="10" type="curve"/>
      <point x="287" y="83" type="line"/>
      <point x="265" y="72"/>
      <point x="223" y="61"/>
      <point x="197" y="61" type="curve" smooth="yes"/>
      <point x="159" y="61"/>
      <point x="141" y="81"/>
      <point x="148" y="132" type="curve" smooth="yes"/>
      <point x="188" y="418" type="line"/>
      <point x="318" y="418" type="line"/>
      <point x="328" y="488" type="line"/>
      <point x="198" y="488" type="line"/>
      <point x="216" y="618" type="line"/>
    </contour>
    <contour>
      <point x="169" y="244" type="move" name="center"/>
    </contour>
    <contour>
      <point x="167" y="0" type="move" name="bottom"/>
    </contour>
    <contour>
      <point x="345" y="488" type="move" name="topleft"/>
    </contour>
  </outline>
</glyph>
<glyph name="u" format="1">
  <advance width="486"/>
  <unicode hex="0075"/>
  <outline>
    <contour>
      <point x="359" y="488" type="line"/>
      <point x="336" y="326" type="line" smooth="yes"/>
      <point x="323" y="235"/>
      <point x="277" y="64"/>
      <point x="181" y="64" type="curve" smooth="yes"/>
      <point x="142" y="64"/>
      <point x="124" y="90"/>
      <point x="137" y="175" type="curve" smooth="yes"/>
      <point x="183" y="488" type="line"/>
      <point x="98" y="488" type="line"/>
      <point x="51" y="165" type="line" smooth="yes"/>
      <point x="34" y="48"/>
      <point x="79" y="-12"/>
      <point x="157" y="-12" type="curve" smooth="yes"/>
      <point x="229" y="-12"/>
      <point x="293" y="48"/>
      <point x="341" y="191" type="curve"/>
      <point x="344" y="192" type="line"/>
      <point x="346" y="190" type="line"/>
      <point x="300" y="28" type="line"/>
      <point x="296" y="0" type="line"/>
      <point x="376" y="0" type="line"/>
      <point x="445" y="488" type="line"/>
    </contour>
    <contour>
      <point x="437" y="10" type="move" name="ogonek"/>
    </contour>
    <contour>
      <point x="282" y="488" type="move" name="top"/>
    </contour>
  </outline>
</glyph>
<glyph name="v" format="1">
  <advance width="432"/>
  <unicode hex="0076"/>
  <outline>
    <contour>
      <point x="357" y="488" type="line"/>
      <point x="290" y="308"/>
      <point x="261" y="238"/>
      <point x="182" y="67" type="curve"/>
      <point x="179" y="65" type="line"/>
      <point x="177" y="67" type="line"/>
      <point x="164" y="207"/>
      <point x="147" y="337"/>
      <point x="121" y="488" type="curve"/>
      <point x="38" y="488" type="line"/>
      <point x="121" y="0" type="line"/>
      <point x="230" y="0" type="line"/>
      <point x="450" y="488" type="line"/>
    </contour>
  </outline>
</glyph>
<glyph name="x" format="1">
  <advance width="421"/>
  <unicode hex="0078"/>
  <outline>
    <contour>
      <point x="332" y="488" type="line"/>
      <point x="294" y="429"/>
      <point x="256" y="372"/>
      <point x="215" y="315" type="curve"/>
      <point x="212" y="313" type="line"/>
      <point x="210" y="315" type="line"/>
      <point x="186" y="375"/>
      <point x="164" y="430"/>
      <point x="137" y="488" type="curve"/>
      <point x="43" y="488" type="line"/>
      <point x="151" y="252" type="line"/>
      <point x="-35" y="0" type="line"/>
      <point x="67" y="0" type="line"/>
      <point x="106" y="53"/>
      <point x="152" y="120"/>
      <point x="198" y="189" type="curve"/>
      <point x="201" y="191" type="line"/>
      <point x="203" y="189" type="line"/>
      <point x="233" y="125"/>
      <point x="257" y="70"/>
      <point x="284" y="0" type="curve"/>
      <point x="376" y="0" type="line"/>
      <point x="259" y="252" type="line"/>
      <point x="433" y="488" type="line"/>
    </contour>
  </outline>
</glyph>
<glyph name="y" format="1">
  <advance width="486"/>
  <unicode hex="0079"/>
  <outline>
    <contour>
      <point x="359" y="488" type="line"/>
      <point x="336" y="326" type="line" smooth="yes"/>
      <point x="323" y="235"/>
      <point x="277" y="64"/>
      <point x="181" y="64" type="curve" smooth="yes"/>
      <point x="142" y="64"/>
      <point x="124" y="90"/>
      <point x="137" y="175" type="curve" smooth="yes"/>
      <point x="183" y="488" type="line"/>
      <point x="98" y="488" type="line"/>
      <point x="51" y="165" type="line" smooth="yes"/>
      <point x="34" y="48"/>
      <point x="79" y="-12"/>
      <point x="157" y="-12" type="curve" smooth="yes"/>
      <point x="229" y="-12"/>
      <point x="293" y="48"/>
      <point x="341" y="191" type="curve"/>
      <point x="344" y="192" type="line"/>
      <point x="346" y="190" type="line"/>
      <point x="296" y="28" type="line"/>
      <point x="285" y="-43" type="line" smooth="yes"/>
      <point x="277" y="-97"/>
      <point x="252" y="-124"/>
      <point x="189" y="-124" type="curve" smooth="yes"/>
      <point x="150" y="-124"/>
      <point x="97" y="-114"/>
      <point x="53" y="-100" type="curve"/>
      <point x="43" y="-175" type="line"/>
      <point x="87" y="-188"/>
      <point x="145" y="-197"/>
      <point x="186" y="-197" type="curve" smooth="yes"/>
      <point x="301" y="-197"/>
      <point x="355" y="-150"/>
      <point x="371" y="-36" type="curve" smooth="yes"/>
      <point x="445" y="488" type="line"/>
    </contour>
    <contour>
      <point x="288" y="488" type="move" name="top"/>
    </contour>
  </outline>
</glyph>
<glyph name="z" format="1">
  <advance width="401"/>
  <unicode hex="007A"/>
  <outline>
    <contour>
      <point x="68" y="488" type="line"/>
      <point x="58" y="413" type="line"/>
      <point x="268" y="413" type="line"/>
      <point x="4" y="65" type="line"/>
      <point x="-5" y="0" type="line"/>
      <point x="321" y="0" type="line"/>
      <point x="331" y="75" type="line"/>
      <point x="110" y="75" type="line"/>
      <point x="183" y="184"/>
      <point x="279" y="310"/>
      <point x="380" y="423" type="curve"/>
      <point x="389" y="488" type="line"/>
    </contour>
    <contour>
      <point x="246" y="488" type="move" name="top"/>
    </contour>
  </outline>
</glyph>
<glyph name="braceleft" format="1">
  <advance width="256"/>
  <unicode hex="007B"/>
  <outline>
    <contour>
      <point x="191" y="767"/>
      <point x="161" y="737"/>
      <point x="138" y="584" type="curve" smooth="yes"/>
      <point x="118" y="449" type="line" smooth="yes"/>
      <point x="109" y="387"/>
      <point x="89" y="369"/>
      <point x="41" y="369" type="curve" smooth="yes"/>
      <point x="16" y="369" type="line"/>
      <point x="7" y="299" type="line"/>
      <point x="32" y="299" type="line" smooth="yes"/>
      <point x="80" y="299"/>
      <point x="94" y="280"/>
      <point x="85" y="219" type="curve" smooth="yes"/>
      <point x="66" y="88" type="line" smooth="yes"/>
      <point x="45" y="-59"/>
      <point x="70" y="-92"/>
      <point x="212" y="-92" type="curve"/>
      <point x="222" y="-22" type="line"/>
      <point x="148" y="-22"/>
      <point x="137" y="-8"/>
      <point x="148" y="67" type="curve" smooth="yes"/>
      <point x="170" y="219" type="line" smooth="yes"/>
      <point x="180" y="287"/>
      <point x="167" y="320"/>
      <point x="128" y="334" type="curve"/>
      <point x="170" y="347"/>
      <point x="193" y="381"/>
      <point x="203" y="449" type="curve" smooth="yes"/>
      <point x="226" y="603" type="line" smooth="yes"/>
      <point x="238" y="683"/>
      <point x="251" y="688"/>
      <point x="323" y="677" type="curve"/>
      <point x="333" y="749" type="line"/>
    </contour>
  </outline>
</glyph>
<glyph name="asciitilde" format="1">
  <advance width="390"/>
  <unicode hex="007E"/>
  <outline>
    <contour>
      <point x="381" y="349"/>
      <point x="316" y="324"/>
      <point x="279" y="324" type="curve" smooth="yes"/>
      <point x="213" y="324"/>
      <point x="198" y="352"/>
      <point x="127" y="352" type="curve" smooth="yes"/>
      <point x="69" y="352"/>
      <point x="23" y="324"/>
      <point x="23" y="324" type="curve"/>
      <point x="13" y="254" type="line"/>
      <point x="13" y="254"/>
      <point x="78" y="279"/>
      <point x="115" y="279" type="curve" smooth="yes"/>
      <point x="183" y="279"/>
      <point x="196" y="251"/>
      <point x="267" y="251" type="curve" smooth="yes"/>
      <point x="325" y="251"/>
      <point x="371" y="279"/>
      <point x="371" y="279" type="curve"/>
      <point x="381" y="349" type="line"/>
    </contour>
  </outline>
</glyph>
<glyph name="currency" format="1">
  <advance width="470"/>
  <unicode hex="00A4"/>
  <outline>
    <contour>
      <point x="363" y="466" type="line"/>
      <point x="338" y="484"/>
      <point x="304" y="494"/>
      <point x="262" y="494" type="curve" smooth="yes"/>
      <point x="221" y="494"/>
      <point x="186" y="485"/>
      <point x="155" y="468" type="curve"/>
      <point x="109" y="523" type="line"/>
      <point x="45" y="467" type="line"/>
      <point x="95" y="410" type="line"/>
      <point x="78" y="384"/>
      <point x="69" y="358"/>
      <point x="64" y="323" type="curve" smooth="yes"/>
      <point x="61" y="303" type="line" smooth="yes"/>
      <point x="56" y="265"/>
      <point x="60" y="237"/>
      <point x="71" y="210" type="curve"/>
      <point x="0" y="149" type="line"/>
      <point x="49" y="93" type="line"/>
      <point x="117" y="154" type="line"/>
      <point x="142" y="139"/>
      <point x="173" y="132"/>
      <point x="211" y="132" type="curve" smooth="yes"/>
      <point x="250" y="132"/>
      <point x="284" y="140"/>
      <point x="313" y="156" type="curve"/>
      <point x="367" y="93" type="line"/>
      <point x="430" y="149" type="line"/>
      <point x="374" y="213" type="line"/>
      <point x="392" y="240"/>
      <point x="403" y="266"/>
      <point x="408" y="303" type="curve" smooth="yes"/>
      <point x="411" y="323" type="line" smooth="yes"/>
      <point x="416" y="357"/>
      <point x="414" y="382"/>
      <point x="406" y="407" type="curve"/>
      <point x="475" y="467" type="line"/>
      <point x="427" y="523" type="line"/>
    </contour>
    <contour>
      <point x="319" y="421"/>
      <point x="337" y="378"/>
      <point x="329" y="323" type="curve" smooth="yes"/>
      <point x="326" y="303" type="line" smooth="yes"/>
      <point x="318" y="247"/>
      <point x="287" y="204"/>
      <point x="221" y="204" type="curve" smooth="yes"/>
      <point x="154" y="204"/>
      <point x="135" y="247"/>
      <point x="143" y="303" type="curve" smooth="yes"/>
      <point x="146" y="323" type="line" smooth="yes"/>
      <point x="154" y="378"/>
      <point x="186" y="421"/>
      <point x="252" y="421" type="curve" smooth="yes"/>
    </contour>
  </outline>
</glyph>
<glyph name="section" format="1">
  <advance width="418"/>
  <unicode hex="00A7"/>
  <outline>
    <contour>
      <point x="149" y="695"/>
      <point x="104" y="644"/>
      <point x="96" y="575" type="curve" smooth="yes"/>
      <point x="94" y="558" type="line" smooth="yes"/>
      <point x="86" y="504"/>
      <point x="102" y="453"/>
      <point x="151" y="422" type="curve"/>
      <point x="83" y="407"/>
      <point x="36" y="363"/>
      <point x="27" y="303" type="curve" smooth="yes"/>
      <point x="25" y="287" type="line" smooth="yes"/>
      <point x="17" y="221"/>
      <point x="47" y="170"/>
      <point x="112" y="141" type="curve" smooth="yes"/>
      <point x="210" y="97" type="line" smooth="yes"/>
      <point x="241" y="83"/>
      <point x="253" y="58"/>
      <point x="249" y="21" type="curve" smooth="yes"/>
      <point x="248" y="12" type="line" smooth="yes"/>
      <point x="244" y="-24"/>
      <point x="220" y="-49"/>
      <point x="167" y="-49" type="curve" smooth="yes"/>
      <point x="158" y="-49"/>
      <point x="141" y="-48"/>
      <point x="131" y="-47" type="curve"/>
      <point x="109" y="-42"/>
      <point x="77" y="-31"/>
      <point x="50" y="-21" type="curve"/>
      <point x="38" y="-98" type="line"/>
      <point x="80" y="-110"/>
      <point x="128" y="-118"/>
      <point x="160" y="-118" type="curve" smooth="yes"/>
      <point x="272" y="-118"/>
      <point x="319" y="-67"/>
      <point x="327" y="2" type="curve" smooth="yes"/>
      <point x="329" y="19" type="line" smooth="yes"/>
      <point x="335" y="73"/>
      <point x="320" y="123"/>
      <point x="271" y="155" type="curve"/>
      <point x="341" y="170"/>
      <point x="389" y="213"/>
      <point x="396" y="274" type="curve"/>
      <point x="398" y="290" type="line" smooth="yes"/>
      <point x="406" y="356"/>
      <point x="377" y="406"/>
      <point x="311" y="436" type="curve" smooth="yes"/>
      <point x="213" y="480" type="line" smooth="yes"/>
      <point x="182" y="494"/>
      <point x="170" y="519"/>
      <point x="174" y="556" type="curve" smooth="yes"/>
      <point x="175" y="565" type="line" smooth="yes"/>
      <point x="179" y="601"/>
      <point x="202" y="626"/>
      <point x="247" y="626" type="curve" smooth="yes"/>
      <point x="256" y="626"/>
      <point x="273" y="625"/>
      <point x="283" y="624" type="curve"/>
      <point x="305" y="619"/>
      <point x="337" y="608"/>
      <point x="364" y="598" type="curve"/>
      <point x="376" y="675" type="line"/>
      <point x="334" y="687"/>
      <point x="286" y="695"/>
      <point x="254" y="695" type="curve" smooth="yes"/>
    </contour>
    <contour>
      <point x="268" y="368" type="line" smooth="yes"/>
      <point x="305" y="352"/>
      <point x="320" y="322"/>
      <point x="315" y="288" type="curve" smooth="yes"/>
      <point x="314" y="282" type="line" smooth="yes"/>
      <point x="304" y="222"/>
      <point x="246" y="194"/>
      <point x="183" y="196" type="curve"/>
      <point x="155" y="209" type="line" smooth="yes"/>
      <point x="120" y="225"/>
      <point x="103" y="255"/>
      <point x="108" y="289" type="curve" smooth="yes"/>
      <point x="109" y="295" type="line" smooth="yes"/>
      <point x="118" y="355"/>
      <point x="176" y="383"/>
      <point x="240" y="380" type="curve"/>
    </contour>
  </outline>
</glyph>
<glyph name="ordfeminine" format="1">
  <advance width="469"/>
  <unicode hex="00AA"/>
  <outline>
    <contour>
      <point x="157" y="667"/>
      <point x="99" y="610"/>
      <point x="81" y="498" type="curve" smooth="yes"/>
      <point x="63" y="393" type="line" smooth="yes"/>
      <point x="45" y="281"/>
      <point x="92" y="214"/>
      <point x="170" y="214" type="curve" smooth="yes"/>
      <point x="242" y="214"/>
      <point x="305" y="269"/>
      <point x="353" y="410" type="curve"/>
      <point x="356" y="411" type="line"/>
      <point x="358" y="409" type="line"/>
      <point x="317" y="284" type="line"/>
      <point x="309" y="226" type="line"/>
      <point x="390" y="226" type="line"/>
      <point x="449" y="655" type="line"/>
      <point x="369" y="655" type="line"/>
      <point x="362" y="608" type="line"/>
      <point x="336" y="636"/>
      <point x="291" y="667"/>
      <point x="242" y="667" type="curve" smooth="yes"/>
    </contour>
    <contour>
      <point x="30" y="73" type="line"/>
      <point x="20" y="0" type="line"/>
      <point x="359" y="0" type="line"/>
      <point x="369" y="73" type="line"/>
    </contour>
    <contour>
      <point x="288" y="591"/>
      <point x="326" y="570"/>
      <point x="350" y="540" type="curve"/>
      <point x="344" y="502" type="line"/>
      <point x="326" y="412"/>
      <point x="274" y="290"/>
      <point x="194" y="290" type="curve" smooth="yes"/>
      <point x="155" y="290"/>
      <point x="136" y="319"/>
      <point x="150" y="404" type="curve" smooth="yes"/>
      <point x="165" y="490" type="line" smooth="yes"/>
      <point x="178" y="568"/>
      <point x="208" y="591"/>
      <point x="256" y="591" type="curve" smooth="yes"/>
    </contour>
  </outline>
</glyph>
<glyph name="guillemotleft" format="1">
  <advance width="488"/>
  <unicode hex="00AB"/>
  <outline>
    <contour>
      <point x="193" y="438" type="line"/>
      <point x="69" y="268" type="line"/>
      <point x="145" y="98" type="line"/>
      <point x="233" y="98" type="line"/>
      <point x="164" y="268" type="line"/>
      <point x="281" y="438" type="line"/>
    </contour>
    <contour>
      <point x="363" y="438" type="line"/>
      <point x="239" y="268" type="line"/>
      <point x="315" y="98" type="line"/>
      <point x="403" y="98" type="line"/>
      <point x="334" y="268" type="line"/>
      <point x="451" y="438" type="line"/>
    </contour>
  </outline>
</glyph>
<glyph name="logicalnot" format="1">
  <advance width="390"/>
  <unicode hex="00AC"/>
  <outline>
    <contour>
      <point x="21" y="335" type="line"/>
      <point x="11" y="265" type="line"/>
      <point x="296" y="265" type="line"/>
      <point x="274" y="113" type="line"/>
      <point x="350" y="113" type="line"/>
      <point x="382" y="335" type="line"/>
    </contour>
  </outline>
</glyph>
<glyph name="degree" format="1">
  <advance width="390"/>
  <unicode hex="00B0"/>
  <outline>
    <contour>
      <point x="134" y="695"/>
      <point x="84" y="646"/>
      <point x="68" y="537" type="curve" smooth="yes"/>
      <point x="65" y="516" type="line" smooth="yes"/>
      <point x="50" y="408"/>
      <point x="109" y="339"/>
      <point x="215" y="339" type="curve" smooth="yes"/>
      <point x="322" y="339"/>
      <point x="369" y="388"/>
      <point x="386" y="497" type="curve"/>
      <point x="388" y="518" type="line" smooth="yes"/>
      <point x="403" y="626"/>
      <point x="347" y="695"/>
      <point x="240" y="695" type="curve" smooth="yes"/>
    </contour>
    <contour>
      <point x="290" y="626"/>
      <point x="320" y="590"/>
      <point x="310" y="522" type="curve" smooth="yes"/>
      <point x="307" y="501" type="line" smooth="yes"/>
      <point x="299" y="445"/>
      <point x="277" y="408"/>
      <point x="216" y="408" type="curve" smooth="yes"/>
      <point x="154" y="408"/>
      <point x="136" y="457"/>
      <point x="144" y="512" type="curve" smooth="yes"/>
      <point x="147" y="533" type="line" smooth="yes"/>
      <point x="155" y="599"/>
      <point x="184" y="626"/>
      <point x="238" y="626" type="curve" smooth="yes"/>
    </contour>
  </outline>
</glyph>
<glyph name="plusminus" format="1">
  <advance width="390"/>
  <unicode hex="00B1"/>
  <outline>
    <contour>
      <point x="185" y="488" type="line"/>
      <point x="164" y="336" type="line"/>
      <point x="24" y="336" type="line"/>
      <point x="14" y="265" type="line"/>
      <point x="154" y="265" type="line"/>
      <point x="132" y="113" type="line"/>
      <point x="208" y="113" type="line"/>
      <point x="230" y="265" type="line"/>
      <point x="370" y="265" type="line"/>
      <point x="380" y="336" type="line"/>
      <point x="240" y="336" type="line"/>
      <point x="261" y="488" type="line"/>
    </contour>
    <contour>
      <point x="-15" y="70" type="line"/>
      <point x="-24" y="0" type="line"/>
      <point x="332" y="0" type="line"/>
      <point x="341" y="70" type="line"/>
    </contour>
  </outline>
</glyph>
<glyph name="twosuperior" format="1">
  <advance width="400"/>
  <unicode hex="00B2"/>
  <outline>
    <contour>
      <point x="222" y="760"/>
      <point x="178" y="752"/>
      <point x="144" y="741" type="curve"/>
      <point x="135" y="675" type="line"/>
      <point x="163" y="687"/>
      <point x="205" y="696"/>
      <point x="235" y="696" type="curve" smooth="yes"/>
      <point x="287" y="696"/>
      <point x="305" y="677"/>
      <point x="301" y="644" type="curve" smooth="yes"/>
      <point x="300" y="635" type="line" smooth="yes"/>
      <point x="296" y="601"/>
      <point x="278" y="582"/>
      <point x="257" y="561" type="curve" smooth="yes"/>
      <point x="85" y="387" type="line"/>
      <point x="77" y="331" type="line"/>
      <point x="333" y="331" type="line"/>
      <point x="342" y="395" type="line"/>
      <point x="177" y="395" type="line"/>
      <point x="291" y="501" type="line" smooth="yes"/>
      <point x="347" y="553"/>
      <point x="370" y="591"/>
      <point x="376" y="637" type="curve" smooth="yes"/>
      <point x="377" y="645" type="line" smooth="yes"/>
      <point x="386" y="714"/>
      <point x="351" y="760"/>
      <point x="249" y="760" type="curve" smooth="yes"/>
    </contour>
  </outline>
</glyph>
<glyph name="uni00B5" format="1">
  <advance width="480"/>
  <unicode hex="00B5"/>
  <outline>
    <contour>
      <point x="359" y="488" type="line"/>
      <point x="336" y="326" type="line" smooth="yes"/>
      <point x="323" y="235"/>
      <point x="277" y="64"/>
      <point x="181" y="64" type="curve" smooth="yes"/>
      <point x="142" y="64"/>
      <point x="124" y="90"/>
      <point x="137" y="175" type="curve" smooth="yes"/>
      <point x="183" y="488" type="line"/>
      <point x="98" y="488" type="line"/>
      <point x="48" y="143" type="line"/>
      <point x="27" y="-2"/>
      <point x="7" y="-111"/>
      <point x="-12" y="-185" type="curve"/>
      <point x="72" y="-185" type="line"/>
      <point x="85" y="-138"/>
      <point x="102" y="-63"/>
      <point x="112" y="1" type="curve"/>
      <point x="125" y="-8"/>
      <point x="140" y="-12"/>
      <point x="157" y="-12" type="curve" smooth="yes"/>
      <point x="229" y="-12"/>
      <point x="293" y="48"/>
      <point x="341" y="191" type="curve"/>
      <point x="344" y="192" type="line"/>
      <point x="346" y="190" type="line"/>
      <point x="300" y="28" type="line"/>
      <point x="296" y="0" type="line"/>
      <point x="376" y="0" type="line"/>
      <point x="445" y="488" type="line"/>
    </contour>
  </outline>
</glyph>
<glyph name="paragraph" format="1">
  <advance width="546"/>
  <unicode hex="00B6"/>
  <outline>
    <contour>
      <point x="197" y="683" type="line" smooth="yes"/>
      <point x="113" y="683"/>
      <point x="69" y="645"/>
      <point x="58" y="570" type="curve" smooth="yes"/>
      <point x="41" y="449" type="line" smooth="yes"/>
      <point x="29" y="365"/>
      <point x="75" y="312"/>
      <point x="155" y="312" type="curve" smooth="yes"/>
      <point x="197" y="312" type="line"/>
      <point x="127" y="-185" type="line"/>
      <point x="213" y="-185" type="line"/>
      <point x="335" y="683" type="line"/>
    </contour>
    <contour>
      <point x="207" y="388" type="line"/>
      <point x="170" y="388" type="line" smooth="yes"/>
      <point x="135" y="388"/>
      <point x="119" y="407"/>
      <point x="126" y="462" type="curve"/>
      <point x="137" y="544" type="line" smooth="yes"/>
      <point x="144" y="596"/>
      <point x="160" y="610"/>
      <point x="197" y="610" type="curve" smooth="yes"/>
      <point x="238" y="610" type="line"/>
    </contour>
    <contour>
      <point x="440" y="683" type="line"/>
      <point x="318" y="-185" type="line"/>
      <point x="404" y="-185" type="line"/>
      <point x="526" y="683" type="line"/>
    </contour>
  </outline>
</glyph>
<glyph name="onesuperior" format="1">
  <advance width="400"/>
  <unicode hex="00B9"/>
  <outline>
    <contour>
      <point x="256" y="752" type="line"/>
      <point x="121" y="704" type="line"/>
      <point x="127" y="637" type="line"/>
      <point x="232" y="679" type="line"/>
      <point x="191" y="395" type="line"/>
      <point x="99" y="395" type="line"/>
      <point x="90" y="331" type="line"/>
      <point x="342" y="331" type="line"/>
      <point x="351" y="395" type="line"/>
      <point x="272" y="395" type="line"/>
      <point x="322" y="752" type="line"/>
    </contour>
  </outline>
</glyph>
<glyph name="guillemotright" format="1">
  <advance width="488"/>
  <unicode hex="00BB"/>
  <outline>
    <contour>
      <point x="263" y="438" type="line"/>
      <point x="332" y="268" type="line"/>
      <point x="215" y="98" type="line"/>
      <point x="303" y="98" type="line"/>
      <point x="427" y="268" type="line"/>
      <point x="351" y="438" type="line"/>
    </contour>
    <contour>
      <point x="93" y="438" type="line"/>
      <point x="162" y="268" type="line"/>
      <point x="45" y="98" type="line"/>
      <point x="133" y="98" type="line"/>
      <point x="257" y="268" type="line"/>
      <point x="181" y="438" type="line"/>
    </contour>
  </outline>
</glyph>
<glyph name="onehalf" format="1">
  <advance width="1022"/>
  <unicode hex="00BD"/>
  <outline>
    <contour>
      <point x="236" y="602" type="line"/>
      <point x="101" y="554" type="line"/>
      <point x="107" y="487" type="line"/>
      <point x="212" y="529" type="line"/>
      <point x="171" y="245" type="line"/>
      <point x="79" y="245" type="line"/>
      <point x="70" y="181" type="line"/>
      <point x="322" y="181" type="line"/>
      <point x="331" y="245" type="line"/>
      <point x="252" y="245" type="line"/>
      <point x="302" y="602" type="line"/>
    </contour>
    <contour>
      <point x="359" y="0" type="line"/>
      <point x="748" y="601" type="line"/>
      <point x="665" y="601" type="line"/>
      <point x="276" y="0" type="line"/>
    </contour>
    <contour>
      <point x="798" y="429"/>
      <point x="754" y="421"/>
      <point x="720" y="410" type="curve"/>
      <point x="711" y="344" type="line"/>
      <point x="739" y="356"/>
      <point x="781" y="365"/>
      <point x="811" y="365" type="curve" smooth="yes"/>
      <point x="863" y="365"/>
      <point x="881" y="346"/>
      <point x="877" y="313" type="curve" smooth="yes"/>
      <point x="876" y="304" type="line" smooth="yes"/>
      <point x="872" y="270"/>
      <point x="854" y="251"/>
      <point x="833" y="230" type="curve" smooth="yes"/>
      <point x="661" y="56" type="line"/>
      <point x="653" y="0" type="line"/>
      <point x="909" y="0" type="line"/>
      <point x="918" y="64" type="line"/>
      <point x="753" y="64" type="line"/>
      <point x="867" y="170" type="line" smooth="yes"/>
      <point x="923" y="222"/>
      <point x="946" y="260"/>
      <point x="952" y="306" type="curve" smooth="yes"/>
      <point x="953" y="314" type="line" smooth="yes"/>
      <point x="962" y="383"/>
      <point x="927" y="429"/>
      <point x="825" y="429" type="curve" smooth="yes"/>
    </contour>
  </outline>
</glyph>
<glyph name="threequarters" format="1">
  <advance width="1000"/>
  <unicode hex="00BE"/>
  <outline>
    <contour>
      <point x="355" y="0" type="line"/>
      <point x="744" y="601" type="line"/>
      <point x="661" y="601" type="line"/>
      <point x="272" y="0" type="line"/>
    </contour>
    <contour>
      <point x="167" y="610"/>
      <point x="131" y="605"/>
      <point x="97" y="598" type="curve"/>
      <point x="88" y="539" type="line"/>
      <point x="116" y="546"/>
      <point x="150" y="552"/>
      <point x="179" y="552" type="curve" smooth="yes"/>
      <point x="226" y="552"/>
      <point x="243" y="531"/>
      <point x="238" y="494" type="curve" smooth="yes"/>
      <point x="237" y="487" type="line" smooth="yes"/>
      <point x="231" y="443"/>
      <point x="209" y="427"/>
      <point x="160" y="427" type="curve" smooth="yes"/>
      <point x="102" y="427" type="line"/>
      <point x="93" y="369" type="line"/>
      <point x="151" y="369" type="line" smooth="yes"/>
      <point x="207" y="369"/>
      <point x="223" y="343"/>
      <point x="218" y="300" type="curve" smooth="yes"/>
      <point x="217" y="292" type="line" smooth="yes"/>
      <point x="212" y="253"/>
      <point x="186" y="233"/>
      <point x="144" y="233" type="curve" smooth="yes"/>
      <point x="115" y="233"/>
      <point x="72" y="242"/>
      <point x="46" y="251" type="curve"/>
      <point x="38" y="191" type="line"/>
      <point x="70" y="180"/>
      <point x="116" y="173"/>
      <point x="141" y="173" type="curve" smooth="yes"/>
      <point x="238" y="173"/>
      <point x="286" y="219"/>
      <point x="296" y="290" type="curve" smooth="yes"/>
      <point x="297" y="297" type="line" smooth="yes"/>
      <point x="303" y="341"/>
      <point x="280" y="381"/>
      <point x="236" y="399" type="curve"/>
      <point x="281" y="416"/>
      <point x="305" y="449"/>
      <point x="310" y="489" type="curve" smooth="yes"/>
      <point x="311" y="496" type="line" smooth="yes"/>
      <point x="320" y="562"/>
      <point x="283" y="610"/>
      <point x="193" y="610" type="curve" smooth="yes"/>
    </contour>
    <contour>
      <point x="763" y="421" type="line"/>
      <point x="618" y="132" type="line"/>
      <point x="633" y="90" type="line"/>
      <point x="804" y="90" type="line"/>
      <point x="791" y="0" type="line"/>
      <point x="868" y="0" type="line"/>
      <point x="881" y="90" type="line"/>
      <point x="937" y="90" type="line"/>
      <point x="945" y="152" type="line"/>
      <point x="889" y="152" type="line"/>
      <point x="908" y="286" type="line"/>
      <point x="832" y="286" type="line"/>
      <point x="814" y="159" type="line"/>
      <point x="813" y="152" type="line"/>
      <point x="708" y="152" type="line"/>
      <point x="839" y="421" type="line"/>
    </contour>
  </outline>
</glyph>
<glyph name="Aring" format="1">
  <advance width="532"/>
  <unicode hex="00C5"/>
  <outline>
    <contour>
      <point x="254" y="798"/>
      <point x="211" y="757"/>
      <point x="211" y="694" type="curve" smooth="yes"/>
      <point x="211" y="665"/>
      <point x="224" y="641"/>
      <point x="244" y="626" type="curve"/>
      <point x="-23" y="0" type="line"/>
      <point x="67" y="0" type="line"/>
      <point x="89" y="50"/>
      <point x="110" y="101"/>
      <point x="131" y="152" type="curve"/>
      <point x="370" y="152" type="line"/>
      <point x="379" y="101"/>
      <point x="385" y="51"/>
      <point x="392" y="0" type="curve"/>
      <point x="483" y="0" type="line"/>
      <point x="370" y="612" type="line"/>
      <point x="414" y="627"/>
      <point x="437" y="664"/>
      <point x="437" y="709" type="curve" smooth="yes"/>
      <point x="437" y="763"/>
      <point x="392" y="798"/>
      <point x="330" y="798" type="curve" smooth="yes"/>
    </contour>
    <contour>
      <point x="320" y="461"/>
      <point x="340" y="344"/>
      <point x="358" y="228" type="curve"/>
      <point x="163" y="228" type="line"/>
      <point x="210" y="343"/>
      <point x="255" y="459"/>
      <point x="299" y="576" type="curve"/>
    </contour>
    <contour>
      <point x="358" y="747"/>
      <point x="376" y="732"/>
      <point x="376" y="707" type="curve" smooth="yes"/>
      <point x="376" y="671"/>
      <point x="362" y="655"/>
      <point x="322" y="655" type="curve" smooth="yes"/>
      <point x="286" y="656"/>
      <point x="273" y="672"/>
      <point x="273" y="698" type="curve" smooth="yes"/>
      <point x="273" y="733"/>
      <point x="288" y="747"/>
      <point x="328" y="747" type="curve" smooth="yes"/>
    </contour>
  </outline>
</glyph>
<glyph name="multiply" format="1">
  <advance width="390"/>
  <unicode hex="00D7"/>
  <outline>
    <contour>
      <point x="205" y="352" type="line"/>
      <point x="112" y="460" type="line"/>
      <point x="52" y="406" type="line"/>
      <point x="143" y="298" type="line"/>
      <point x="24" y="193" type="line"/>
      <point x="67" y="143" type="line"/>
      <point x="186" y="248" type="line"/>
      <point x="279" y="141" type="line"/>
      <point x="341" y="194" type="line"/>
      <point x="248" y="302" type="line"/>
      <point x="369" y="408" type="line"/>
      <point x="326" y="458" type="line"/>
    </contour>
  </outline>
</glyph>
<glyph name="Thorn" format="1">
  <advance width="502"/>
  <unicode hex="00DE"/>
  <outline>
    <contour>
      <point x="131" y="655" type="line"/>
      <point x="39" y="0" type="line"/>
      <point x="124" y="0" type="line"/>
      <point x="145" y="148" type="line"/>
      <point x="189" y="140"/>
      <point x="225" y="137"/>
      <point x="246" y="137" type="curve" smooth="yes"/>
      <point x="393" y="137"/>
      <point x="468" y="203"/>
      <point x="488" y="320" type="curve" smooth="yes"/>
      <point x="490" y="335" type="line" smooth="yes"/>
      <point x="507" y="461"/>
      <point x="438" y="537"/>
      <point x="280" y="537" type="curve" smooth="yes"/>
      <point x="257" y="537"/>
      <point x="228" y="536"/>
      <point x="199" y="535" type="curve"/>
      <point x="216" y="655" type="line"/>
    </contour>
    <contour>
      <point x="376" y="466"/>
      <point x="418" y="419"/>
      <point x="406" y="344" type="curve" smooth="yes"/>
      <point x="404" y="332" type="line" smooth="yes"/>
      <point x="390" y="250"/>
      <point x="342" y="208"/>
      <point x="245" y="208" type="curve" smooth="yes"/>
      <point x="221" y="208"/>
      <point x="197" y="210"/>
      <point x="154" y="217" type="curve"/>
      <point x="189" y="464" type="line"/>
      <point x="210" y="465"/>
      <point x="233" y="466"/>
      <point x="272" y="466" type="curve" smooth="yes"/>
    </contour>
  </outline>
</glyph>
<glyph name="germandbls" format="1">
  <advance width="498"/>
  <unicode hex="00DF"/>
  <outline>
    <contour>
      <point x="201" y="695"/>
      <point x="149" y="641"/>
      <point x="132" y="513" type="curve" smooth="yes"/>
      <point x="128" y="482" type="line"/>
      <point x="52" y="468" type="line"/>
      <point x="45" y="418" type="line"/>
      <point x="118" y="418" type="line"/>
      <point x="60" y="0" type="line"/>
      <point x="145" y="0" type="line"/>
      <point x="221" y="544" type="line" smooth="yes"/>
      <point x="229" y="602"/>
      <point x="250" y="625"/>
      <point x="299" y="625" type="curve" smooth="yes"/>
      <point x="349" y="625"/>
      <point x="374" y="594"/>
      <point x="369" y="557" type="curve" smooth="yes"/>
      <point x="367" y="541" type="line" smooth="yes"/>
      <point x="357" y="472"/>
      <point x="269" y="468"/>
      <point x="259" y="376" type="curve" smooth="yes"/>
      <point x="258" y="367" type="line" smooth="yes"/>
      <point x="254" y="314"/>
      <point x="268" y="280"/>
      <point x="307" y="254" type="curve" smooth="yes"/>
      <point x="352" y="224" type="line" smooth="yes"/>
      <point x="375" y="209"/>
      <point x="387" y="183"/>
      <point x="383" y="151" type="curve" smooth="yes"/>
      <point x="380" y="129" type="line" smooth="yes"/>
      <point x="374" y="83"/>
      <point x="347" y="58"/>
      <point x="317" y="58" type="curve" smooth="yes"/>
      <point x="311" y="58"/>
      <point x="304" y="58"/>
      <point x="297" y="59" type="curve" smooth="yes"/>
      <point x="275" y="64"/>
      <point x="252" y="72"/>
      <point x="225" y="82" type="curve"/>
      <point x="214" y="10" type="line"/>
      <point x="247" y="-4"/>
      <point x="287" y="-12"/>
      <point x="323" y="-12" type="curve" smooth="yes"/>
      <point x="410" y="-12"/>
      <point x="457" y="43"/>
      <point x="467" y="133" type="curve" smooth="yes"/>
      <point x="468" y="142" type="line" smooth="yes"/>
      <point x="474" y="200"/>
      <point x="456" y="253"/>
      <point x="407" y="287" type="curve" smooth="yes"/>
      <point x="363" y="317" type="line" smooth="yes"/>
      <point x="344" y="330"/>
      <point x="338" y="345"/>
      <point x="341" y="373" type="curve" smooth="yes"/>
      <point x="342" y="380" type="line" smooth="yes"/>
      <point x="351" y="440"/>
      <point x="437" y="440"/>
      <point x="452" y="548" type="curve" smooth="yes"/>
      <point x="453" y="557" type="line" smooth="yes"/>
      <point x="462" y="637"/>
      <point x="403" y="695"/>
      <point x="304" y="695" type="curve" smooth="yes"/>
    </contour>
  </outline>
</glyph>
<glyph name="ccedilla" format="1">
  <advance width="393"/>
  <unicode hex="00E7"/>
  <outline>
    <contour>
      <point x="145" y="500"/>
      <point x="82" y="445"/>
      <point x="64" y="321" type="curve" smooth="yes"/>
      <point x="43" y="173" type="line" smooth="yes"/>
      <point x="28" y="73"/>
      <point x="64" y="10"/>
      <point x="139" y="-7" type="curve"/>
      <point x="114" y="-60" type="line"/>
      <point x="111" y="-80" type="line"/>
      <point x="137" y="-80" type="line" smooth="yes"/>
      <point x="162" y="-80"/>
      <point x="174" y="-92"/>
      <point x="171" y="-113" type="curve" smooth="yes"/>
      <point x="170" y="-120" type="line" smooth="yes"/>
      <point x="168" y="-133"/>
      <point x="157" y="-143"/>
      <point x="135" y="-143" type="curve" smooth="yes"/>
      <point x="120" y="-143"/>
      <point x="104" y="-139"/>
      <point x="90" y="-133" type="curve"/>
      <point x="83" y="-188" type="line"/>
      <point x="100" y="-193"/>
      <point x="126" y="-197"/>
      <point x="142" y="-197" type="curve" smooth="yes"/>
      <point x="201" y="-197"/>
      <point x="231" y="-169"/>
      <point x="237" y="-121" type="curve" smooth="yes"/>
      <point x="238" y="-112" type="line" smooth="yes"/>
      <point x="243" y="-70"/>
      <point x="219" y="-41"/>
      <point x="182" y="-41" type="curve" smooth="yes"/>
      <point x="180" y="-41" type="line"/>
      <point x="192" y="-12" type="line"/>
      <point x="226" y="-10"/>
      <point x="267" y="0"/>
      <point x="307" y="19" type="curve"/>
      <point x="316" y="96" type="line"/>
      <point x="278" y="74"/>
      <point x="235" y="63"/>
      <point x="198" y="63" type="curve" smooth="yes"/>
      <point x="147" y="63"/>
      <point x="118" y="91"/>
      <point x="129" y="174" type="curve" smooth="yes"/>
      <point x="150" y="328" type="line" smooth="yes"/>
      <point x="160" y="396"/>
      <point x="195" y="428"/>
      <point x="247" y="428" type="curve" smooth="yes"/>
      <point x="275" y="428"/>
      <point x="310" y="421"/>
      <point x="350" y="406" type="curve"/>
      <point x="362" y="482" type="line"/>
      <point x="317" y="495"/>
      <point x="283" y="500"/>
      <point x="248" y="500" type="curve" smooth="yes"/>
    </contour>
  </outline>
</glyph>
<glyph name="eth" format="1">
  <advance width="487"/>
  <unicode hex="00F0"/>
  <outline>
    <contour>
      <point x="158" y="631" type="line"/>
      <point x="210" y="631"/>
      <point x="253" y="617"/>
      <point x="285" y="591" type="curve"/>
      <point x="212" y="571" type="line"/>
      <point x="202" y="505" type="line"/>
      <point x="327" y="539" type="line"/>
      <point x="347" y="500"/>
      <point x="354" y="448"/>
      <point x="345" y="386" type="curve" smooth="yes"/>
      <point x="341" y="361" type="line"/>
      <point x="311" y="415"/>
      <point x="262" y="439"/>
      <point x="217" y="439" type="curve" smooth="yes"/>
      <point x="135" y="439"/>
      <point x="85" y="393"/>
      <point x="70" y="282" type="curve" smooth="yes"/>
      <point x="54" y="167" type="line" smooth="yes"/>
      <point x="37" y="51"/>
      <point x="93" y="-12"/>
      <point x="214" y="-12" type="curve" smooth="yes"/>
      <point x="328" y="-12"/>
      <point x="383" y="48"/>
      <point x="399" y="165" type="curve" smooth="yes"/>
      <point x="423" y="335" type="line" smooth="yes"/>
      <point x="436" y="428"/>
      <point x="430" y="504"/>
      <point x="405" y="561" type="curve"/>
      <point x="468" y="579" type="line"/>
      <point x="477" y="645" type="line"/>
      <point x="372" y="615" type="line"/>
      <point x="328" y="668"/>
      <point x="259" y="695"/>
      <point x="167" y="695" type="curve"/>
    </contour>
    <contour>
      <point x="264" y="363"/>
      <point x="305" y="336"/>
      <point x="330" y="281" type="curve"/>
      <point x="311" y="148" type="line" smooth="yes"/>
      <point x="303" y="90"/>
      <point x="276" y="59"/>
      <point x="216" y="59" type="curve" smooth="yes"/>
      <point x="159" y="59"/>
      <point x="127" y="91"/>
      <point x="135" y="152" type="curve" smooth="yes"/>
      <point x="151" y="264" type="line" smooth="yes"/>
      <point x="161" y="336"/>
      <point x="188" y="363"/>
      <point x="228" y="363" type="curve" smooth="yes"/>
    </contour>
  </outline>
</glyph>
<glyph name="oslash" format="1">
  <advance width="472"/>
  <unicode hex="00F8"/>
  <outline>
    <contour>
      <point x="423" y="538" type="line"/>
      <point x="367" y="468" type="line"/>
      <point x="340" y="488"/>
      <point x="303" y="500"/>
      <point x="256" y="500" type="curve" smooth="yes"/>
      <point x="148" y="500"/>
      <point x="79" y="434"/>
      <point x="63" y="316" type="curve" smooth="yes"/>
      <point x="43" y="172" type="line" smooth="yes"/>
      <point x="38" y="135"/>
      <point x="40" y="102"/>
      <point x="50" y="75" type="curve"/>
      <point x="-51" y="-51" type="line"/>
      <point x="36" y="-51" type="line"/>
      <point x="92" y="18" type="line"/>
      <point x="119" y="-1"/>
      <point x="157" y="-12"/>
      <point x="205" y="-12" type="curve" smooth="yes"/>
      <point x="316" y="-12"/>
      <point x="381" y="56"/>
      <point x="397" y="176" type="curve" smooth="yes"/>
      <point x="416" y="315" type="line" smooth="yes"/>
      <point x="421" y="351"/>
      <point x="419" y="384"/>
      <point x="409" y="411" type="curve"/>
      <point x="511" y="538" type="line"/>
    </contour>
    <contour>
      <point x="332" y="321"/>
      <point x="331" y="314"/>
      <point x="330" y="307" type="curve" smooth="yes"/>
      <point x="309" y="161" type="line"/>
      <point x="300" y="91"/>
      <point x="266" y="59"/>
      <point x="208" y="59" type="curve" smooth="yes"/>
      <point x="179" y="59"/>
      <point x="155" y="69"/>
      <point x="141" y="89" type="curve"/>
      <point x="333" y="328" type="line"/>
    </contour>
    <contour>
      <point x="282" y="429"/>
      <point x="305" y="418"/>
      <point x="319" y="397" type="curve"/>
      <point x="126" y="157" type="line"/>
      <point x="127" y="164"/>
      <point x="127" y="164"/>
      <point x="128" y="171" type="curve"/>
      <point x="150" y="327" type="line"/>
      <point x="160" y="398"/>
      <point x="196" y="429"/>
      <point x="252" y="429" type="curve" smooth="yes"/>
    </contour>
    <contour>
      <point x="267" y="488" type="move" name="top"/>
    </contour>
  </outline>
</glyph>
<glyph name="thorn" format="1">
  <advance width="477"/>
  <unicode hex="00FE"/>
  <outline>
    <contour>
      <point x="125" y="683" type="line"/>
      <point x="3" y="-185" type="line"/>
      <point x="88" y="-185" type="line"/>
      <point x="119" y="37" type="line"/>
      <point x="151" y="8"/>
      <point x="197" y="-12"/>
      <point x="237" y="-12" type="curve" smooth="yes"/>
      <point x="322" y="-12"/>
      <point x="374" y="40"/>
      <point x="394" y="148" type="curve" smooth="yes"/>
      <point x="422" y="297" type="line" smooth="yes"/>
      <point x="447" y="432"/>
      <point x="399" y="500"/>
      <point x="316" y="500" type="curve" smooth="yes"/>
      <point x="234" y="500"/>
      <point x="176" y="413"/>
      <point x="129" y="254" type="curve"/>
      <point x="126" y="252" type="line"/>
      <point x="124" y="254" type="line"/>
      <point x="179" y="458" type="line"/>
      <point x="210" y="683" type="line"/>
    </contour>
    <contour>
      <point x="330" y="424"/>
      <point x="356" y="387"/>
      <point x="337" y="292" type="curve" smooth="yes"/>
      <point x="311" y="160" type="line" smooth="yes"/>
      <point x="297" y="91"/>
      <point x="265" y="63"/>
      <point x="216" y="63" type="curve" smooth="yes"/>
      <point x="189" y="63"/>
      <point x="154" y="77"/>
      <point x="128" y="99" type="curve"/>
      <point x="134" y="139" type="line" smooth="yes"/>
      <point x="156" y="284"/>
      <point x="227" y="424"/>
      <point x="296" y="424" type="curve" smooth="yes"/>
    </contour>
  </outline>
</glyph>
<glyph name="aogonek" format="1">
  <advance width="476"/>
  <unicode hex="0105"/>
  <outline>
    <contour>
      <point x="148" y="500"/>
      <point x="84" y="444"/>
      <point x="65" y="327" type="curve" smooth="yes"/>
      <point x="39" y="164" type="line" smooth="yes"/>
      <point x="20" y="49"/>
      <point x="71" y="-12"/>
      <point x="146" y="-12" type="curve" smooth="yes"/>
      <point x="218" y="-12"/>
      <point x="282" y="48"/>
      <point x="330" y="191" type="curve"/>
      <point x="333" y="192" type="line"/>
      <point x="335" y="190" type="line"/>
      <point x="294" y="65" type="line"/>
      <point x="285" y="3" type="line"/>
      <point x="243" y="-22"/>
      <point x="213" y="-64"/>
      <point x="208" y="-103" type="curve" smooth="yes"/>
      <point x="206" y="-116" type="line" smooth="yes"/>
      <point x="199" y="-164"/>
      <point x="226" y="-197"/>
      <point x="294" y="-197" type="curve" smooth="yes"/>
      <point x="309" y="-197"/>
      <point x="325" y="-196"/>
      <point x="343" y="-192" type="curve"/>
      <point x="351" y="-131" type="line"/>
      <point x="339" y="-133"/>
      <point x="327" y="-134"/>
      <point x="318" y="-134" type="curve" smooth="yes"/>
      <point x="288" y="-134"/>
      <point x="277" y="-123"/>
      <point x="281" y="-97" type="curve" smooth="yes"/>
      <point x="282" y="-87" type="line" smooth="yes"/>
      <point x="287" y="-53"/>
      <point x="311" y="-19"/>
      <point x="350" y="0" type="curve"/>
      <point x="366" y="0" type="line"/>
      <point x="434" y="488" type="line"/>
      <point x="354" y="488" type="line"/>
      <point x="347" y="438" type="line"/>
      <point x="315" y="476"/>
      <point x="273" y="500"/>
      <point x="227" y="500" type="curve" smooth="yes"/>
    </contour>
    <contour>
      <point x="272" y="427"/>
      <point x="308" y="406"/>
      <point x="334" y="373" type="curve"/>
      <point x="320" y="278" type="line"/>
      <point x="301" y="187"/>
      <point x="250" y="64"/>
      <point x="170" y="64" type="curve" smooth="yes"/>
      <point x="131" y="64"/>
      <point x="112" y="90"/>
      <point x="126" y="175" type="curve" smooth="yes"/>
      <point x="150" y="322" type="line" smooth="yes"/>
      <point x="162" y="396"/>
      <point x="194" y="427"/>
      <point x="238" y="427" type="curve" smooth="yes"/>
    </contour>
  </outline>
</glyph>
<glyph name="Iogonek" format="1">
  <advance width="235"/>
  <unicode hex="012E"/>
  <outline>
    <contour>
      <point x="119" y="655" type="line"/>
      <point x="39" y="3" type="line"/>
      <point x="-3" y="-21"/>
      <point x="-34" y="-63"/>
      <point x="-39" y="-103" type="curve" smooth="yes"/>
      <point x="-41" y="-116" type="line" smooth="yes"/>
      <point x="-48" y="-164"/>
      <point x="-21" y="-197"/>
      <point x="47" y="-197" type="curve" smooth="yes"/>
      <point x="62" y="-197"/>
      <point x="78" y="-196"/>
      <point x="96" y="-192" type="curve"/>
      <point x="104" y="-131" type="line"/>
      <point x="92" y="-133"/>
      <point x="80" y="-134"/>
      <point x="71" y="-134" type="curve" smooth="yes"/>
      <point x="41" y="-134"/>
      <point x="30" y="-123"/>
      <point x="34" y="-97" type="curve" smooth="yes"/>
      <point x="35" y="-87" type="line" smooth="yes"/>
      <point x="40" y="-53"/>
      <point x="64" y="-19"/>
      <point x="103" y="0" type="curve"/>
      <point x="124" y="0" type="line"/>
      <point x="204" y="655" type="line"/>
    </contour>
  </outline>
</glyph>
<glyph name="iogonek" format="1">
  <advance width="225"/>
  <unicode hex="012F"/>
  <outline>
    <contour>
      <point x="98" y="488" type="line"/>
      <point x="30" y="2" type="line"/>
      <point x="-10" y="-23"/>
      <point x="-40" y="-64"/>
      <point x="-45" y="-103" type="curve" smooth="yes"/>
      <point x="-47" y="-116" type="line" smooth="yes"/>
      <point x="-54" y="-164"/>
      <point x="-27" y="-197"/>
      <point x="41" y="-197" type="curve" smooth="yes"/>
      <point x="56" y="-197"/>
      <point x="72" y="-196"/>
      <point x="90" y="-192" type="curve"/>
      <point x="98" y="-131" type="line"/>
      <point x="86" y="-133"/>
      <point x="74" y="-134"/>
      <point x="65" y="-134" type="curve" smooth="yes"/>
      <point x="35" y="-134"/>
      <point x="24" y="-123"/>
      <point x="28" y="-97" type="curve" smooth="yes"/>
      <point x="29" y="-87" type="line" smooth="yes"/>
      <point x="34" y="-53"/>
      <point x="58" y="-19"/>
      <point x="97" y="0" type="curve"/>
      <point x="115" y="0" type="line"/>
      <point x="183" y="488" type="line"/>
    </contour>
    <contour>
      <point x="128" y="695"/>
      <point x="109" y="682"/>
      <point x="105" y="652" type="curve"/>
      <point x="101" y="623" type="line"/>
      <point x="97" y="594"/>
      <point x="119" y="575"/>
      <point x="154" y="575" type="curve" smooth="yes"/>
      <point x="190" y="575"/>
      <point x="208" y="588"/>
      <point x="212" y="617" type="curve" smooth="yes"/>
      <point x="216" y="646" type="line" smooth="yes"/>
      <point x="220" y="676"/>
      <point x="199" y="695"/>
      <point x="163" y="695" type="curve" smooth="yes"/>
    </contour>
    <contour>
      <point x="159" y="488" type="move" name="_top"/>
    </contour>
  </outline>
</glyph>
<glyph name="lslash" format="1">
  <advance width="235"/>
  <unicode hex="0142"/>
  <outline>
    <contour>
      <point x="119" y="683" type="line"/>
      <point x="117" y="616"/>
      <point x="112" y="552"/>
      <point x="99" y="458" type="curve" smooth="yes"/>
      <point x="94" y="425" type="line"/>
      <point x="0" y="398" type="line"/>
      <point x="-9" y="328" type="line"/>
      <point x="84" y="355" type="line"/>
      <point x="35" y="0" type="line"/>
      <point x="120" y="0" type="line"/>
      <point x="173" y="380" type="line"/>
      <point x="267" y="408" type="line"/>
      <point x="277" y="478" type="line"/>
      <point x="183" y="450" type="line"/>
      <point x="185" y="464" type="line" smooth="yes"/>
      <point x="199" y="564"/>
      <point x="203" y="632"/>
      <point x="204" y="683" type="curve"/>
    </contour>
  </outline>
</glyph>
<glyph name="oe" format="1">
  <advance width="704"/>
  <unicode hex="0153"/>
  <outline>
    <contour>
      <point x="476" y="500"/>
      <point x="423" y="471"/>
      <point x="388" y="421" type="curve"/>
      <point x="368" y="467"/>
      <point x="319" y="500"/>
      <point x="253" y="500" type="curve" smooth="yes"/>
      <point x="134" y="500"/>
      <point x="80" y="434"/>
      <point x="64" y="322" type="curve" smooth="yes"/>
      <point x="43" y="173" type="line" smooth="yes"/>
      <point x="28" y="61"/>
      <point x="81" y="-12"/>
      <point x="204" y="-12" type="curve" smooth="yes"/>
      <point x="265" y="-12"/>
      <point x="306" y="16"/>
      <point x="336" y="53" type="curve"/>
      <point x="366" y="8"/>
      <point x="417" y="-12"/>
      <point x="469" y="-12" type="curve" smooth="yes"/>
      <point x="502" y="-12"/>
      <point x="548" y="-2"/>
      <point x="593" y="19" type="curve"/>
      <point x="608" y="96" type="line"/>
      <point x="563" y="73"/>
      <point x="511" y="61"/>
      <point x="468" y="61" type="curve" smooth="yes"/>
      <point x="412" y="61"/>
      <point x="383" y="94"/>
      <point x="393" y="155" type="curve" smooth="yes"/>
      <point x="396" y="173" type="line"/>
      <point x="594" y="190"/>
      <point x="673" y="277"/>
      <point x="673" y="374" type="curve" smooth="yes"/>
      <point x="673" y="450"/>
      <point x="621" y="500"/>
      <point x="531" y="500" type="curve" smooth="yes"/>
    </contour>
    <contour>
      <point x="309" y="429"/>
      <point x="342" y="392"/>
      <point x="332" y="324" type="curve" smooth="yes"/>
      <point x="309" y="161" type="line" smooth="yes"/>
      <point x="300" y="93"/>
      <point x="265" y="59"/>
      <point x="208" y="59" type="curve" smooth="yes"/>
      <point x="151" y="59"/>
      <point x="118" y="97"/>
      <point x="127" y="165" type="curve" smooth="yes"/>
      <point x="150" y="327" type="line" smooth="yes"/>
      <point x="160" y="395"/>
      <point x="195" y="429"/>
      <point x="252" y="429" type="curve" smooth="yes"/>
    </contour>
    <contour>
      <point x="565" y="429"/>
      <point x="589" y="406"/>
      <point x="589" y="367" type="curve" smooth="yes"/>
      <point x="589" y="326"/>
      <point x="566" y="291"/>
      <point x="512" y="254" type="curve"/>
      <point x="484" y="243"/>
      <point x="448" y="234"/>
      <point x="404" y="227" type="curve"/>
      <point x="411" y="272" type="line" smooth="yes"/>
      <point x="427" y="378"/>
      <point x="478" y="429"/>
      <point x="528" y="429" type="curve" smooth="yes"/>
    </contour>
    <contour>
      <point x="352" y="488" type="move" name="top"/>
    </contour>
  </outline>
</glyph>
<glyph name="Scedilla" format="1">
  <advance width="456"/>
  <unicode hex="015E"/>
  <outline>
    <contour>
      <point x="150" y="667"/>
      <point x="87" y="621"/>
      <point x="68" y="536" type="curve" smooth="yes"/>
      <point x="66" y="527" type="line" smooth="yes"/>
      <point x="44" y="430"/>
      <point x="82" y="352"/>
      <point x="169" y="317" type="curve" smooth="yes"/>
      <point x="258" y="281" type="line" smooth="yes"/>
      <point x="317" y="257"/>
      <point x="336" y="225"/>
      <point x="325" y="163" type="curve" smooth="yes"/>
      <point x="323" y="152" type="line" smooth="yes"/>
      <point x="313" y="92"/>
      <point x="279" y="64"/>
      <point x="209" y="64" type="curve" smooth="yes"/>
      <point x="197" y="64"/>
      <point x="186" y="64"/>
      <point x="166" y="66" type="curve"/>
      <point x="128" y="75"/>
      <point x="84" y="92"/>
      <point x="39" y="115" type="curve"/>
      <point x="29" y="30" type="line"/>
      <point x="65" y="12"/>
      <point x="122" y="-4"/>
      <point x="174" y="-10" type="curve"/>
      <point x="151" y="-60" type="line"/>
      <point x="148" y="-80" type="line"/>
      <point x="174" y="-80" type="line" smooth="yes"/>
      <point x="199" y="-80"/>
      <point x="211" y="-92"/>
      <point x="208" y="-113" type="curve" smooth="yes"/>
      <point x="207" y="-120" type="line" smooth="yes"/>
      <point x="205" y="-133"/>
      <point x="194" y="-143"/>
      <point x="172" y="-143" type="curve" smooth="yes"/>
      <point x="157" y="-143"/>
      <point x="141" y="-139"/>
      <point x="127" y="-133" type="curve"/>
      <point x="120" y="-188" type="line"/>
      <point x="137" y="-193"/>
      <point x="163" y="-197"/>
      <point x="179" y="-197" type="curve" smooth="yes"/>
      <point x="238" y="-197"/>
      <point x="268" y="-169"/>
      <point x="274" y="-121" type="curve" smooth="yes"/>
      <point x="275" y="-112" type="line" smooth="yes"/>
      <point x="280" y="-70"/>
      <point x="256" y="-41"/>
      <point x="219" y="-41" type="curve" smooth="yes"/>
      <point x="217" y="-41" type="line"/>
      <point x="230" y="-11" type="line"/>
      <point x="336" y="-5"/>
      <point x="394" y="47"/>
      <point x="409" y="145" type="curve" smooth="yes"/>
      <point x="411" y="158" type="line" smooth="yes"/>
      <point x="426" y="257"/>
      <point x="390" y="318"/>
      <point x="303" y="354" type="curve" smooth="yes"/>
      <point x="220" y="388" type="line" smooth="yes"/>
      <point x="162" y="411"/>
      <point x="142" y="448"/>
      <point x="151" y="504" type="curve" smooth="yes"/>
      <point x="153" y="516" type="line" smooth="yes"/>
      <point x="161" y="565"/>
      <point x="196" y="591"/>
      <point x="265" y="591" type="curve" smooth="yes"/>
      <point x="275" y="591"/>
      <point x="285" y="591"/>
      <point x="300" y="590" type="curve"/>
      <point x="337" y="583"/>
      <point x="374" y="574"/>
      <point x="409" y="564" type="curve"/>
      <point x="420" y="645" type="line"/>
      <point x="375" y="657"/>
      <point x="312" y="667"/>
      <point x="269" y="667" type="curve" smooth="yes"/>
    </contour>
  </outline>
</glyph>
<glyph name="scedilla" format="1">
  <advance width="367"/>
  <unicode hex="015F"/>
  <outline>
    <contour>
      <point x="106" y="500"/>
      <point x="58" y="460"/>
      <point x="46" y="395" type="curve" smooth="yes"/>
      <point x="43" y="379" type="line" smooth="yes"/>
      <point x="32" y="318"/>
      <point x="58" y="266"/>
      <point x="123" y="236" type="curve" smooth="yes"/>
      <point x="203" y="199" type="line" smooth="yes"/>
      <point x="232" y="185"/>
      <point x="246" y="157"/>
      <point x="241" y="130" type="curve"/>
      <point x="240" y="124" type="line" smooth="yes"/>
      <point x="233" y="81"/>
      <point x="207" y="60"/>
      <point x="159" y="60" type="curve" smooth="yes"/>
      <point x="150" y="60"/>
      <point x="136" y="61"/>
      <point x="120" y="63" type="curve"/>
      <point x="93" y="71"/>
      <point x="51" y="88"/>
      <point x="24" y="103" type="curve"/>
      <point x="11" y="26" type="line"/>
      <point x="41" y="10"/>
      <point x="82" y="-2"/>
      <point x="120" y="-8" type="curve"/>
      <point x="96" y="-60" type="line"/>
      <point x="93" y="-80" type="line"/>
      <point x="119" y="-80" type="line" smooth="yes"/>
      <point x="144" y="-80"/>
      <point x="156" y="-92"/>
      <point x="153" y="-113" type="curve" smooth="yes"/>
      <point x="152" y="-120" type="line" smooth="yes"/>
      <point x="150" y="-133"/>
      <point x="139" y="-143"/>
      <point x="117" y="-143" type="curve" smooth="yes"/>
      <point x="102" y="-143"/>
      <point x="86" y="-139"/>
      <point x="72" y="-133" type="curve"/>
      <point x="65" y="-188" type="line"/>
      <point x="82" y="-193"/>
      <point x="108" y="-197"/>
      <point x="124" y="-197" type="curve" smooth="yes"/>
      <point x="183" y="-197"/>
      <point x="213" y="-169"/>
      <point x="219" y="-121" type="curve" smooth="yes"/>
      <point x="220" y="-112" type="line" smooth="yes"/>
      <point x="225" y="-70"/>
      <point x="201" y="-41"/>
      <point x="164" y="-41" type="curve" smooth="yes"/>
      <point x="162" y="-41" type="line"/>
      <point x="175" y="-11" type="line"/>
      <point x="264" y="-6"/>
      <point x="313" y="44"/>
      <point x="322" y="116" type="curve" smooth="yes"/>
      <point x="324" y="132" type="line" smooth="yes"/>
      <point x="331" y="191"/>
      <point x="302" y="241"/>
      <point x="246" y="267" type="curve" smooth="yes"/>
      <point x="164" y="305" type="line" smooth="yes"/>
      <point x="133" y="319"/>
      <point x="119" y="345"/>
      <point x="124" y="374" type="curve" smooth="yes"/>
      <point x="125" y="380" type="line" smooth="yes"/>
      <point x="130" y="412"/>
      <point x="153" y="431"/>
      <point x="200" y="431" type="curve" smooth="yes"/>
      <point x="209" y="431"/>
      <point x="226" y="430"/>
      <point x="236" y="429" type="curve"/>
      <point x="258" y="424"/>
      <point x="290" y="413"/>
      <point x="317" y="403" type="curve"/>
      <point x="329" y="480" type="line"/>
      <point x="287" y="492"/>
      <point x="239" y="500"/>
      <point x="207" y="500" type="curve" smooth="yes"/>
    </contour>
  </outline>
</glyph>
<glyph name="Tcedilla" format="1">
  <advance width="525"/>
  <unicode hex="0162"/>
  <outline>
    <contour>
      <point x="74" y="655" type="line"/>
      <point x="64" y="578" type="line"/>
      <point x="254" y="578" type="line"/>
      <point x="187" y="26" type="line"/>
      <point x="147" y="-60" type="line"/>
      <point x="144" y="-80" type="line"/>
      <point x="170" y="-80" type="line" smooth="yes"/>
      <point x="195" y="-80"/>
      <point x="207" y="-92"/>
      <point x="204" y="-113" type="curve" smooth="yes"/>
      <point x="203" y="-120" type="line" smooth="yes"/>
      <point x="201" y="-133"/>
      <point x="190" y="-143"/>
      <point x="168" y="-143" type="curve" smooth="yes"/>
      <point x="153" y="-143"/>
      <point x="137" y="-139"/>
      <point x="123" y="-133" type="curve"/>
      <point x="116" y="-188" type="line"/>
      <point x="133" y="-193"/>
      <point x="159" y="-197"/>
      <point x="175" y="-197" type="curve" smooth="yes"/>
      <point x="234" y="-197"/>
      <point x="264" y="-169"/>
      <point x="270" y="-121" type="curve" smooth="yes"/>
      <point x="271" y="-112" type="line" smooth="yes"/>
      <point x="276" y="-70"/>
      <point x="252" y="-41"/>
      <point x="215" y="-41" type="curve" smooth="yes"/>
      <point x="213" y="-41" type="line"/>
      <point x="231" y="0" type="line"/>
      <point x="269" y="0" type="line"/>
      <point x="339" y="578" type="line"/>
      <point x="529" y="578" type="line"/>
      <point x="539" y="655" type="line"/>
    </contour>
  </outline>
</glyph>
<glyph name="tcedilla" format="1">
  <advance width="338"/>
  <unicode hex="0163"/>
  <outline>
    <contour>
      <point x="166" y="618" type="line"/>
      <point x="120" y="483" type="line"/>
      <point x="40" y="468" type="line"/>
      <point x="33" y="418" type="line"/>
      <point x="104" y="418" type="line"/>
      <point x="64" y="139" type="line" smooth="yes"/>
      <point x="52" y="53"/>
      <point x="76" y="8"/>
      <point x="134" y="-6" type="curve"/>
      <point x="109" y="-60" type="line"/>
      <point x="106" y="-80" type="line"/>
      <point x="132" y="-80" type="line" smooth="yes"/>
      <point x="157" y="-80"/>
      <point x="169" y="-92"/>
      <point x="166" y="-113" type="curve" smooth="yes"/>
      <point x="165" y="-120" type="line" smooth="yes"/>
      <point x="163" y="-133"/>
      <point x="152" y="-143"/>
      <point x="130" y="-143" type="curve" smooth="yes"/>
      <point x="115" y="-143"/>
      <point x="99" y="-139"/>
      <point x="85" y="-133" type="curve"/>
      <point x="78" y="-188" type="line"/>
      <point x="95" y="-193"/>
      <point x="121" y="-197"/>
      <point x="137" y="-197" type="curve" smooth="yes"/>
      <point x="196" y="-197"/>
      <point x="226" y="-169"/>
      <point x="232" y="-121" type="curve" smooth="yes"/>
      <point x="233" y="-112" type="line" smooth="yes"/>
      <point x="238" y="-70"/>
      <point x="214" y="-41"/>
      <point x="177" y="-41" type="curve" smooth="yes"/>
      <point x="175" y="-41" type="line"/>
      <point x="187" y="-12" type="line"/>
      <point x="215" y="-11"/>
      <point x="255" y="0"/>
      <point x="277" y="10" type="curve"/>
      <point x="287" y="83" type="line"/>
      <point x="265" y="72"/>
      <point x="223" y="61"/>
      <point x="197" y="61" type="curve" smooth="yes"/>
      <point x="159" y="61"/>
      <point x="141" y="81"/>
      <point x="148" y="132" type="curve" smooth="yes"/>
      <point x="188" y="418" type="line"/>
      <point x="318" y="418" type="line"/>
      <point x="328" y="488" type="line"/>
      <point x="198" y="488" type="line"/>
      <point x="216" y="618" type="line"/>
    </contour>
  </outline>
</glyph>
<glyph name="uogonek" format="1">
  <advance width="486"/>
  <unicode hex="0173"/>
  <outline>
    <contour>
      <point x="359" y="488" type="line"/>
      <point x="336" y="326" type="line" smooth="yes"/>
      <point x="323" y="235"/>
      <point x="277" y="64"/>
      <point x="181" y="64" type="curve" smooth="yes"/>
      <point x="142" y="64"/>
      <point x="124" y="90"/>
      <point x="137" y="175" type="curve" smooth="yes"/>
      <point x="183" y="488" type="line"/>
      <point x="98" y="488" type="line"/>
      <point x="51" y="165" type="line" smooth="yes"/>
      <point x="34" y="48"/>
      <point x="79" y="-12"/>
      <point x="157" y="-12" type="curve" smooth="yes"/>
      <point x="229" y="-12"/>
      <point x="293" y="48"/>
      <point x="341" y="191" type="curve"/>
      <point x="344" y="192" type="line"/>
      <point x="346" y="190" type="line"/>
      <point x="300" y="28" type="line"/>
      <point x="296" y="3" type="line"/>
      <point x="254" y="-21"/>
      <point x="223" y="-63"/>
      <point x="218" y="-103" type="curve" smooth="yes"/>
      <point x="216" y="-116" type="line" smooth="yes"/>
      <point x="209" y="-164"/>
      <point x="236" y="-197"/>
      <point x="304" y="-197" type="curve" smooth="yes"/>
      <point x="319" y="-197"/>
      <point x="335" y="-196"/>
      <point x="353" y="-192" type="curve"/>
      <point x="361" y="-131" type="line"/>
      <point x="349" y="-133"/>
      <point x="337" y="-134"/>
      <point x="328" y="-134" type="curve" smooth="yes"/>
      <point x="298" y="-134"/>
      <point x="287" y="-123"/>
      <point x="291" y="-97" type="curve" smooth="yes"/>
      <point x="292" y="-87" type="line" smooth="yes"/>
      <point x="297" y="-53"/>
      <point x="321" y="-19"/>
      <point x="360" y="0" type="curve"/>
      <point x="376" y="0" type="line"/>
      <point x="445" y="488" type="line"/>
    </contour>
  </outline>
</glyph>
<glyph name="circumflex" format="1">
  <advance width="329"/>
  <unicode hex="02C6"/>
  <outline>
    <contour>
      <point x="290" y="546" type="line"/>
      <point x="299" y="613" type="line"/>
      <point x="180" y="690" type="line"/>
      <point x="39" y="618" type="line"/>
      <point x="30" y="546" type="line"/>
      <point x="172" y="613" type="line"/>
    </contour>
    <contour>
      <point x="165" y="488" type="move" name="_top"/>
    </contour>
  </outline>
</glyph>
<glyph name="caron" format="1">
  <advance width="329"/>
  <unicode hex="02C7"/>
  <outline>
    <contour>
      <point x="39" y="690" type="line"/>
      <point x="30" y="622" type="line"/>
      <point x="149" y="546" type="line"/>
      <point x="290" y="616" type="line"/>
      <point x="299" y="690" type="line"/>
      <point x="157" y="623" type="line"/>
    </contour>
    <contour>
      <point x="165" y="488" type="move" name="_top"/>
    </contour>
  </outline>
</glyph>
<glyph name="breve" format="1">
  <advance width="332"/>
  <unicode hex="02D8"/>
  <outline>
    <contour>
      <point x="302" y="685" type="line"/>
      <point x="302" y="685"/>
      <point x="242" y="620"/>
      <point x="163" y="620" type="curve" smooth="yes"/>
      <point x="84" y="620"/>
      <point x="42" y="685"/>
      <point x="42" y="685" type="curve"/>
      <point x="30" y="606" type="line"/>
      <point x="30" y="606"/>
      <point x="66" y="545"/>
      <point x="152" y="545" type="curve" smooth="yes"/>
      <point x="240" y="545"/>
      <point x="290" y="602"/>
      <point x="290" y="602" type="curve"/>
    </contour>
    <contour>
      <point x="166" y="488" type="move" name="_top"/>
    </contour>
  </outline>
</glyph>
<glyph name="ogonek" format="1">
  <advance width="222"/>
  <unicode hex="02DB"/>
  <outline>
    <contour>
      <point x="176" y="-131" type="line"/>
      <point x="164" y="-133"/>
      <point x="152" y="-134"/>
      <point x="143" y="-134" type="curve" smooth="yes"/>
      <point x="113" y="-134"/>
      <point x="102" y="-123"/>
      <point x="106" y="-97" type="curve" smooth="yes"/>
      <point x="107" y="-87" type="line" smooth="yes"/>
      <point x="113" y="-49"/>
      <point x="144" y="-10"/>
      <point x="192" y="7" type="curve"/>
      <point x="160" y="22" type="line"/>
      <point x="93" y="9"/>
      <point x="40" y="-50"/>
      <point x="33" y="-103" type="curve" smooth="yes"/>
      <point x="31" y="-116" type="line" smooth="yes"/>
      <point x="24" y="-164"/>
      <point x="51" y="-197"/>
      <point x="119" y="-197" type="curve" smooth="yes"/>
      <point x="134" y="-197"/>
      <point x="150" y="-196"/>
      <point x="168" y="-192" type="curve"/>
    </contour>
    <contour>
      <point x="192" y="10" type="move" name="_ogonek"/>
    </contour>
  </outline>
</glyph>
<glyph name="hungarumlaut" format="1">
  <advance width="361"/>
  <unicode hex="02DD"/>
  <outline>
    <contour>
      <point x="251" y="685" type="line"/>
      <point x="166" y="546" type="line"/>
      <point x="239" y="546" type="line"/>
      <point x="331" y="685" type="line"/>
    </contour>
    <contour>
      <point x="111" y="685" type="line"/>
      <point x="26" y="546" type="line"/>
      <point x="99" y="546" type="line"/>
      <point x="191" y="685" type="line"/>
    </contour>
    <contour>
      <point x="146" y="488" type="move" name="_top"/>
    </contour>
  </outline>
</glyph>
<glyph name="commaaccentcomb" format="1">
  <advance width="159"/>
  <unicode hex="0326"/>
  <outline>
    <contour>
      <point x="128" y="-102" type="line" smooth="yes"/>
      <point x="133" y="-72"/>
      <point x="116" y="-56"/>
      <point x="81" y="-56" type="curve" smooth="yes"/>
      <point x="51" y="-56"/>
      <point x="39" y="-68"/>
      <point x="35" y="-93" type="curve" smooth="yes"/>
      <point x="32" y="-113" type="line" smooth="yes"/>
      <point x="29" y="-134"/>
      <point x="36" y="-148"/>
      <point x="56" y="-155" type="curve"/>
      <point x="30" y="-226" type="line"/>
      <point x="82" y="-226" type="line"/>
      <point x="110" y="-167" type="line" smooth="yes"/>
      <point x="118" y="-150"/>
      <point x="122" y="-139"/>
      <point x="125" y="-122" type="curve" smooth="yes"/>
    </contour>
    <contour>
      <point x="79" y="0" type="move" name="_bottom"/>
    </contour>
  </outline>
</glyph>
<glyph name="endash" format="1">
  <advance width="610"/>
  <unicode hex="2013"/>
  <outline>
    <contour>
      <point x="71" y="328" type="line"/>
      <point x="61" y="263" type="line"/>
      <point x="541" y="263" type="line"/>
      <point x="551" y="328" type="line"/>
    </contour>
  </outline>
</glyph>
<glyph name="quotedblleft" format="1">
  <advance width="362"/>
  <unicode hex="201C"/>
  <outline>
    <contour>
      <point x="293" y="695" type="line"/>
      <point x="250" y="607" type="line" smooth="yes"/>
      <point x="242" y="591"/>
      <point x="239" y="580"/>
      <point x="236" y="561" type="curve" smooth="yes"/>
      <point x="232" y="531" type="line" smooth="yes"/>
      <point x="228" y="502"/>
      <point x="247" y="482"/>
      <point x="282" y="482" type="curve" smooth="yes"/>
      <point x="316" y="482"/>
      <point x="335" y="492"/>
      <point x="339" y="521" type="curve" smooth="yes"/>
      <point x="343" y="548" type="line" smooth="yes"/>
      <point x="346" y="571"/>
      <point x="335" y="590"/>
      <point x="315" y="596" type="curve"/>
      <point x="352" y="695" type="line"/>
    </contour>
    <contour>
      <point x="151" y="695" type="line"/>
      <point x="108" y="607" type="line" smooth="yes"/>
      <point x="100" y="591"/>
      <point x="97" y="580"/>
      <point x="94" y="561" type="curve" smooth="yes"/>
      <point x="90" y="531" type="line" smooth="yes"/>
      <point x="86" y="502"/>
      <point x="105" y="482"/>
      <point x="140" y="482" type="curve" smooth="yes"/>
      <point x="174" y="482"/>
      <point x="193" y="492"/>
      <point x="197" y="521" type="curve" smooth="yes"/>
      <point x="201" y="548" type="line" smooth="yes"/>
      <point x="204" y="571"/>
      <point x="193" y="590"/>
      <point x="173" y="596" type="curve"/>
      <point x="210" y="695" type="line"/>
    </contour>
  </outline>
</glyph>
<glyph name="quotedblright" format="1">
  <advance width="362"/>
  <unicode hex="201D"/>
  <outline>
    <contour>
      <point x="273" y="695"/>
      <point x="254" y="685"/>
      <point x="250" y="656" type="curve" smooth="yes"/>
      <point x="246" y="629" type="line" smooth="yes"/>
      <point x="243" y="606"/>
      <point x="254" y="587"/>
      <point x="274" y="581" type="curve"/>
      <point x="237" y="482" type="line"/>
      <point x="296" y="482" type="line"/>
      <point x="339" y="570" type="line" smooth="yes"/>
      <point x="347" y="586"/>
      <point x="350" y="597"/>
      <point x="353" y="616" type="curve"/>
      <point x="357" y="646" type="line"/>
      <point x="361" y="675"/>
      <point x="342" y="695"/>
      <point x="307" y="695" type="curve" smooth="yes"/>
    </contour>
    <contour>
      <point x="131" y="695"/>
      <point x="112" y="685"/>
      <point x="108" y="656" type="curve" smooth="yes"/>
      <point x="104" y="629" type="line" smooth="yes"/>
      <point x="101" y="606"/>
      <point x="112" y="587"/>
      <point x="132" y="581" type="curve"/>
      <point x="95" y="482" type="line"/>
      <point x="154" y="482" type="line"/>
      <point x="197" y="570" type="line" smooth="yes"/>
      <point x="205" y="586"/>
      <point x="208" y="597"/>
      <point x="211" y="616" type="curve"/>
      <point x="215" y="646" type="line"/>
      <point x="219" y="675"/>
      <point x="200" y="695"/>
      <point x="165" y="695" type="curve" smooth="yes"/>
    </contour>
  </outline>
</glyph>
<glyph name="quotedblbase" format="1">
  <advance width="362"/>
  <unicode hex="201E"/>
  <outline>
    <contour>
      <point x="189" y="105"/>
      <point x="170" y="95"/>
      <point x="166" y="66" type="curve" smooth="yes"/>
      <point x="162" y="39" type="line" smooth="yes"/>
      <point x="159" y="16"/>
      <point x="170" y="-3"/>
      <point x="190" y="-9" type="curve"/>
      <point x="153" y="-108" type="line"/>
      <point x="212" y="-108" type="line"/>
      <point x="255" y="-20" type="line" smooth="yes"/>
      <point x="263" y="-4"/>
      <point x="266" y="7"/>
      <point x="269" y="26" type="curve"/>
      <point x="273" y="56" type="line"/>
      <point x="277" y="85"/>
      <point x="258" y="105"/>
      <point x="223" y="105" type="curve" smooth="yes"/>
    </contour>
    <contour>
      <point x="47" y="105"/>
      <point x="28" y="95"/>
      <point x="24" y="66" type="curve" smooth="yes"/>
      <point x="20" y="39" type="line" smooth="yes"/>
      <point x="17" y="16"/>
      <point x="28" y="-3"/>
      <point x="48" y="-9" type="curve"/>
      <point x="11" y="-108" type="line"/>
      <point x="70" y="-108" type="line"/>
      <point x="113" y="-20" type="line" smooth="yes"/>
      <point x="121" y="-4"/>
      <point x="124" y="7"/>
      <point x="127" y="26" type="curve"/>
      <point x="131" y="56" type="line"/>
      <point x="135" y="85"/>
      <point x="116" y="105"/>
      <point x="81" y="105" type="curve" smooth="yes"/>
    </contour>
  </outline>
</glyph>
<glyph name="fraction" format="1">
  <advance width="380"/>
  <unicode hex="2044"/>
  <outline>
    <contour>
      <point x="39" y="0" type="line"/>
      <point x="428" y="601" type="line"/>
      <point x="345" y="601" type="line"/>
      <point x="-44" y="0" type="line"/>
    </contour>
  </outline>
</glyph>
<glyph name="Euro" format="1">
  <advance width="454"/>
  <unicode hex="20AC"/>
  <outline>
    <contour>
      <point x="194" y="617"/>
      <point x="131" y="558"/>
      <point x="110" y="416" type="curve" smooth="yes"/>
      <point x="107" y="396" type="line"/>
      <point x="52" y="396" type="line"/>
      <point x="22" y="326" type="line"/>
      <point x="98" y="326" type="line"/>
      <point x="89" y="264" type="line"/>
      <point x="34" y="264" type="line"/>
      <point x="4" y="194" type="line"/>
      <point x="80" y="194" type="line"/>
      <point x="79" y="185" type="line"/>
      <point x="67" y="51"/>
      <point x="124" y="-12"/>
      <point x="246" y="-12" type="curve" smooth="yes"/>
      <point x="291" y="-12"/>
      <point x="350" y="1"/>
      <point x="394" y="19" type="curve"/>
      <point x="402" y="99" type="line"/>
      <point x="346" y="77"/>
      <point x="305" y="66"/>
      <point x="259" y="66" type="curve" smooth="yes"/>
      <point x="183" y="66"/>
      <point x="155" y="98"/>
      <point x="165" y="186" type="curve" smooth="yes"/>
      <point x="166" y="194" type="line"/>
      <point x="333" y="194" type="line"/>
      <point x="363" y="264" type="line"/>
      <point x="175" y="264" type="line"/>
      <point x="183" y="326" type="line"/>
      <point x="351" y="326" type="line"/>
      <point x="381" y="396" type="line"/>
      <point x="193" y="396" type="line"/>
      <point x="196" y="419" type="line" smooth="yes"/>
      <point x="207" y="505"/>
      <point x="243" y="543"/>
      <point x="315" y="543" type="curve" smooth="yes"/>
      <point x="355" y="543"/>
      <point x="403" y="532"/>
      <point x="449" y="515" type="curve"/>
      <point x="463" y="593" type="line"/>
      <point x="415" y="607"/>
      <point x="361" y="617"/>
      <point x="317" y="617" type="curve" smooth="yes"/>
    </contour>
  </outline>
</glyph>
<glyph name="estimated" format="1">
  <advance width="955"/>
  <unicode hex="212E"/>
  <outline>
    <contour>
      <point x="260" y="703"/>
      <point x="79" y="545"/>
      <point x="79" y="335" type="curve" smooth="yes"/>
      <point x="79" y="125"/>
      <point x="252" y="-27"/>
      <point x="481" y="-27" type="curve" smooth="yes"/>
      <point x="620" y="-27"/>
      <point x="727" y="25"/>
      <point x="800" y="110" type="curve"/>
      <point x="742" y="110" type="line"/>
      <point x="686" y="45"/>
      <point x="576" y="12"/>
      <point x="482" y="12" type="curve" smooth="yes"/>
      <point x="388" y="12"/>
      <point x="269" y="46"/>
      <point x="227" y="109" type="curve"/>
      <point x="227" y="327" type="line"/>
      <point x="884" y="327" type="line"/>
      <point x="884" y="550"/>
      <point x="695" y="703"/>
      <point x="481" y="703" type="curve" smooth="yes"/>
    </contour>
    <contour>
      <point x="599" y="664"/>
      <point x="680" y="623"/>
      <point x="736" y="562" type="curve"/>
      <point x="736" y="367" type="line"/>
      <point x="227" y="367" type="line"/>
      <point x="227" y="563" type="line"/>
      <point x="278" y="625"/>
      <point x="365" y="664"/>
      <point x="482" y="664" type="curve" smooth="yes"/>
    </contour>
  </outline>
</glyph>
<glyph name="product" format="1">
  <advance width="575"/>
  <unicode hex="220F"/>
  <outline>
    <contour>
      <point x="40" y="655" type="line"/>
      <point x="29" y="575" type="line"/>
      <point x="118" y="575" type="line"/>
      <point x="26" y="-185" type="line"/>
      <point x="110" y="-185" type="line"/>
      <point x="203" y="575" type="line"/>
      <point x="438" y="575" type="line"/>
      <point x="345" y="-185" type="line"/>
      <point x="430" y="-185" type="line"/>
      <point x="523" y="575" type="line"/>
      <point x="613" y="575" type="line"/>
      <point x="624" y="655" type="line"/>
    </contour>
  </outline>
</glyph>
<glyph name="uni2219" format="1">
  <advance width="235"/>
  <unicode hex="2219"/>
  <outline>
    <contour>
      <point x="78" y="335"/>
      <point x="59" y="320"/>
      <point x="54" y="285" type="curve" smooth="yes"/>
      <point x="49" y="256" type="line" smooth="yes"/>
      <point x="43" y="221"/>
      <point x="70" y="200"/>
      <point x="109" y="200" type="curve" smooth="yes"/>
      <point x="151" y="200"/>
      <point x="168" y="213"/>
      <point x="174" y="249" type="curve" smooth="yes"/>
      <point x="179" y="279" type="line" smooth="yes"/>
      <point x="184" y="312"/>
      <point x="160" y="335"/>
      <point x="118" y="335" type="curve" smooth="yes"/>
    </contour>
  </outline>
</glyph>
<glyph name="radical" format="1">
  <advance width="480"/>
  <unicode hex="221A"/>
  <outline>
    <contour>
      <point x="465" y="683" type="line"/>
      <point x="382" y="474"/>
      <point x="288" y="267"/>
      <point x="183" y="62" type="curve"/>
      <point x="170" y="204"/>
      <point x="154" y="346"/>
      <point x="133" y="488" type="curve"/>
      <point x="48" y="488" type="line"/>
      <point x="124" y="0" type="line"/>
      <point x="234" y="0" type="line"/>
      <point x="522" y="613" type="line"/>
      <point x="606" y="613" type="line"/>
      <point x="615" y="683" type="line"/>
    </contour>
  </outline>
</glyph>
<glyph name="integral" format="1">
  <advance width="316"/>
  <unicode hex="222B"/>
  <outline>
    <contour>
      <point x="217" y="695"/>
      <point x="162" y="646"/>
      <point x="147" y="539" type="curve" smooth="yes"/>
      <point x="67" y="-37" type="line" smooth="yes"/>
      <point x="58" y="-105"/>
      <point x="38" y="-125"/>
      <point x="1" y="-125" type="curve" smooth="yes"/>
      <point x="-21" y="-125"/>
      <point x="-48" y="-120"/>
      <point x="-71" y="-112" type="curve"/>
      <point x="-81" y="-183" type="line"/>
      <point x="-59" y="-190"/>
      <point x="-20" y="-197"/>
      <point x="7" y="-197" type="curve" smooth="yes"/>
      <point x="93" y="-197"/>
      <point x="137" y="-148"/>
      <point x="153" y="-32" type="curve" smooth="yes"/>
      <point x="233" y="544" type="line" smooth="yes"/>
      <point x="242" y="606"/>
      <point x="265" y="626"/>
      <point x="304" y="626" type="curve" smooth="yes"/>
      <point x="323" y="626"/>
      <point x="352" y="621"/>
      <point x="377" y="614" type="curve"/>
      <point x="386" y="684" type="line"/>
      <point x="365" y="690"/>
      <point x="331" y="695"/>
      <point x="309" y="695" type="curve" smooth="yes"/>
    </contour>
  </outline>
</glyph>
<glyph name="approxequal" format="1">
  <advance width="390"/>
  <unicode hex="2248"/>
  <outline>
    <contour>
      <point x="392" y="431"/>
      <point x="328" y="406"/>
      <point x="291" y="406" type="curve" smooth="yes"/>
      <point x="225" y="406"/>
      <point x="209" y="434"/>
      <point x="138" y="434" type="curve" smooth="yes"/>
      <point x="80" y="434"/>
      <point x="35" y="406"/>
      <point x="35" y="406" type="curve"/>
      <point x="25" y="336" type="line"/>
      <point x="25" y="336"/>
      <point x="89" y="361"/>
      <point x="126" y="361" type="curve" smooth="yes"/>
      <point x="194" y="361"/>
      <point x="207" y="333"/>
      <point x="278" y="333" type="curve" smooth="yes"/>
      <point x="336" y="333"/>
      <point x="382" y="361"/>
      <point x="382" y="361" type="curve"/>
      <point x="392" y="431" type="line"/>
    </contour>
    <contour>
      <point x="371" y="281"/>
      <point x="306" y="256"/>
      <point x="269" y="256" type="curve" smooth="yes"/>
      <point x="203" y="256"/>
      <point x="188" y="284"/>
      <point x="117" y="284" type="curve" smooth="yes"/>
      <point x="59" y="284"/>
      <point x="13" y="256"/>
      <point x="13" y="256" type="curve"/>
      <point x="4" y="186" type="line"/>
      <point x="4" y="186"/>
      <point x="68" y="211"/>
      <point x="105" y="211" type="curve" smooth="yes"/>
      <point x="173" y="211"/>
      <point x="186" y="183"/>
      <point x="257" y="183" type="curve" smooth="yes"/>
      <point x="315" y="183"/>
      <point x="361" y="211"/>
      <point x="361" y="211" type="curve"/>
      <point x="371" y="281" type="line"/>
    </contour>
  </outline>
</glyph>
<glyph name="lozenge" format="1">
  <advance width="538"/>
  <unicode hex="25CA"/>
  <outline>
    <contour>
      <point x="290" y="683" type="line"/>
      <point x="13" y="342" type="line"/>
      <point x="195" y="0" type="line"/>
      <point x="263" y="0" type="line"/>
      <point x="541" y="342" type="line"/>
      <point x="358" y="683" type="line"/>
    </contour>
    <contour>
      <point x="439" y="342" type="line"/>
      <point x="241" y="90" type="line"/>
      <point x="115" y="342" type="line"/>
      <point x="312" y="593" type="line"/>
    </contour>
  </outline>
</glyph>
<glyph name="fi" format="1">
  <advance width="509"/>
  <unicode hex="FB01"/>
  <outline>
    <contour>
      <point x="205" y="695"/>
      <point x="150" y="646"/>
      <point x="135" y="539" type="curve" smooth="yes"/>
      <point x="127" y="482" type="line"/>
      <point x="51" y="468" type="line"/>
      <point x="44" y="418" type="line"/>
      <point x="118" y="418" type="line"/>
      <point x="55" y="-37" type="line" smooth="yes"/>
      <point x="46" y="-105"/>
      <point x="26" y="-125"/>
      <point x="-11" y="-125" type="curve" smooth="yes"/>
      <point x="-36" y="-125"/>
      <point x="-63" y="-119"/>
      <point x="-83" y="-112" type="curve"/>
      <point x="-93" y="-183" type="line"/>
      <point x="-71" y="-190"/>
      <point x="-32" y="-197"/>
      <point x="-5" y="-197" type="curve" smooth="yes"/>
      <point x="80" y="-197"/>
      <point x="125" y="-149"/>
      <point x="141" y="-32" type="curve" smooth="yes"/>
      <point x="203" y="418" type="line"/>
      <point x="372" y="418" type="line"/>
      <point x="314" y="0" type="line"/>
      <point x="399" y="0" type="line"/>
      <point x="467" y="488" type="line"/>
      <point x="213" y="488" type="line"/>
      <point x="221" y="544" type="line" smooth="yes"/>
      <point x="230" y="605"/>
      <point x="251" y="626"/>
      <point x="297" y="626" type="curve" smooth="yes"/>
      <point x="325" y="626"/>
      <point x="369" y="616"/>
      <point x="403" y="601" type="curve"/>
      <point x="414" y="676" type="line"/>
      <point x="377" y="687"/>
      <point x="329" y="695"/>
      <point x="299" y="695" type="curve" smooth="yes"/>
    </contour>
  </outline>
</glyph>
<glyph name="fl" format="1">
  <advance width="519"/>
  <unicode hex="FB02"/>
  <outline>
    <contour>
      <point x="208" y="695"/>
      <point x="155" y="644"/>
      <point x="140" y="539" type="curve" smooth="yes"/>
      <point x="132" y="482" type="line"/>
      <point x="56" y="468" type="line"/>
      <point x="49" y="418" type="line"/>
      <point x="123" y="418" type="line"/>
      <point x="60" y="-37" type="line" smooth="yes"/>
      <point x="51" y="-105"/>
      <point x="31" y="-125"/>
      <point x="-6" y="-125" type="curve" smooth="yes"/>
      <point x="-31" y="-125"/>
      <point x="-58" y="-119"/>
      <point x="-78" y="-112" type="curve"/>
      <point x="-88" y="-183" type="line"/>
      <point x="-66" y="-190"/>
      <point x="-27" y="-197"/>
      <point x="0" y="-197" type="curve" smooth="yes"/>
      <point x="82" y="-197"/>
      <point x="129" y="-153"/>
      <point x="146" y="-32" type="curve" smooth="yes"/>
      <point x="208" y="418" type="line"/>
      <point x="298" y="418" type="line"/>
      <point x="308" y="488" type="line"/>
      <point x="218" y="488" type="line"/>
      <point x="226" y="544" type="line" smooth="yes"/>
      <point x="235" y="605"/>
      <point x="256" y="626"/>
      <point x="302" y="626" type="curve" smooth="yes"/>
      <point x="327" y="626"/>
      <point x="367" y="618"/>
      <point x="399" y="605" type="curve"/>
      <point x="396" y="556"/>
      <point x="390" y="506"/>
      <point x="383" y="458" type="curve" smooth="yes"/>
      <point x="319" y="0" type="line"/>
      <point x="404" y="0" type="line"/>
      <point x="469" y="464" type="line" smooth="yes"/>
      <point x="483" y="564"/>
      <point x="487" y="629"/>
      <point x="488" y="680" type="curve"/>
      <point x="419" y="676" type="line"/>
      <point x="382" y="687"/>
      <point x="334" y="695"/>
      <point x="304" y="695" type="curve" smooth="yes"/>
    </contour>
  </outline>
</glyph>
<glyph name="acute.case" format="1">
  <advance width="227"/>
  <outline>
    <contour>
      <point x="197" y="829" type="line"/>
      <point x="108" y="829" type="line"/>
      <point x="30" y="710" type="line"/>
      <point x="100" y="710" type="line"/>
    </contour>
    <contour>
      <point x="74" y="655" type="move" name="_top"/>
    </contour>
  </outline>
</glyph>
<glyph name="breve.case" format="1">
  <advance width="349"/>
  <outline>
    <contour>
      <point x="319" y="830" type="line"/>
      <point x="319" y="830"/>
      <point x="243" y="777"/>
      <point x="174" y="777" type="curve" smooth="yes"/>
      <point x="104" y="777"/>
      <point x="39" y="830"/>
      <point x="39" y="830" type="curve"/>
      <point x="30" y="752" type="line"/>
      <point x="30" y="752"/>
      <point x="89" y="705"/>
      <point x="166" y="705" type="curve" smooth="yes"/>
      <point x="239" y="705"/>
      <point x="310" y="752"/>
      <point x="310" y="752" type="curve"/>
    </contour>
    <contour>
      <point x="175" y="655" type="move" name="_top"/>
    </contour>
  </outline>
</glyph>
<glyph name="caron.case" format="1">
  <advance width="348"/>
  <outline>
    <contour>
      <point x="38" y="841" type="line"/>
      <point x="30" y="773" type="line"/>
      <point x="164" y="712" type="line"/>
      <point x="310" y="773" type="line"/>
      <point x="318" y="841" type="line"/>
      <point x="173" y="792" type="line"/>
    </contour>
    <contour>
      <point x="174" y="655" type="move" name="_top"/>
    </contour>
  </outline>
</glyph>
<glyph name="circumflex.case" format="1">
  <advance width="347"/>
  <outline>
    <contour>
      <point x="175" y="760" type="line"/>
      <point x="310" y="711" type="line"/>
      <point x="317" y="779" type="line"/>
      <point x="184" y="840" type="line"/>
      <point x="37" y="779" type="line"/>
      <point x="30" y="711" type="line"/>
    </contour>
    <contour>
      <point x="174" y="655" type="move" name="_top"/>
    </contour>
  </outline>
</glyph>
<glyph name="dieresis.case" format="1">
  <advance width="345"/>
  <outline>
    <contour>
      <point x="143" y="781" type="line"/>
      <point x="145" y="811"/>
      <point x="125" y="828"/>
      <point x="89" y="828" type="curve" smooth="yes"/>
      <point x="55" y="828"/>
      <point x="38" y="815"/>
      <point x="34" y="785" type="curve" smooth="yes"/>
      <point x="30" y="757" type="line" smooth="yes"/>
      <point x="26" y="729"/>
      <point x="51" y="710"/>
      <point x="85" y="710" type="curve" smooth="yes"/>
      <point x="121" y="710"/>
      <point x="137" y="724"/>
      <point x="139" y="752" type="curve" smooth="yes"/>
    </contour>
    <contour>
      <point x="315" y="781" type="line"/>
      <point x="317" y="811"/>
      <point x="296" y="828"/>
      <point x="261" y="828" type="curve" smooth="yes"/>
      <point x="226" y="828"/>
      <point x="210" y="815"/>
      <point x="206" y="785" type="curve" smooth="yes"/>
      <point x="202" y="757" type="line" smooth="yes"/>
      <point x="198" y="729"/>
      <point x="222" y="710"/>
      <point x="257" y="710" type="curve" smooth="yes"/>
      <point x="292" y="710"/>
      <point x="309" y="724"/>
      <point x="311" y="752" type="curve" smooth="yes"/>
    </contour>
    <contour>
      <point x="173" y="655" type="move" name="_top"/>
    </contour>
  </outline>
</glyph>
<glyph name="dotaccent.case" format="1">
  <advance width="175"/>
  <outline>
    <contour>
      <point x="145" y="780" type="line" smooth="yes"/>
      <point x="147" y="810"/>
      <point x="126" y="829"/>
      <point x="90" y="829" type="curve" smooth="yes"/>
      <point x="55" y="829"/>
      <point x="38" y="816"/>
      <point x="34" y="786" type="curve" smooth="yes"/>
      <point x="30" y="757" type="line" smooth="yes"/>
      <point x="26" y="728"/>
      <point x="50" y="709"/>
      <point x="85" y="709" type="curve" smooth="yes"/>
      <point x="121" y="709"/>
      <point x="139" y="722"/>
      <point x="141" y="751" type="curve" smooth="yes"/>
    </contour>
    <contour>
      <point x="86" y="770" type="move" name="_center"/>
    </contour>
    <contour>
      <point x="88" y="655" type="move" name="_top"/>
    </contour>
  </outline>
</glyph>
<glyph name="grave.case" format="1">
  <advance width="203"/>
  <outline>
    <contour>
      <point x="103" y="710" type="line"/>
      <point x="173" y="710" type="line"/>
      <point x="119" y="829" type="line"/>
      <point x="30" y="829" type="line"/>
    </contour>
    <contour>
      <point x="144" y="655" type="move" name="_top"/>
    </contour>
  </outline>
</glyph>
<glyph name="macron.case" format="1">
  <advance width="305"/>
  <outline>
    <contour>
      <point x="265" y="710" type="line"/>
      <point x="275" y="785" type="line"/>
      <point x="40" y="785" type="line"/>
      <point x="30" y="710" type="line"/>
    </contour>
    <contour>
      <point x="153" y="655" type="move" name="_top"/>
    </contour>
  </outline>
</glyph>
<glyph name="ring.case" format="1">
  <advance width="292"/>
  <outline>
    <contour>
      <point x="79" y="885"/>
      <point x="28" y="850"/>
      <point x="30" y="773" type="curve" smooth="yes"/>
      <point x="32" y="716"/>
      <point x="77" y="685"/>
      <point x="140" y="685" type="curve" smooth="yes"/>
      <point x="217" y="685"/>
      <point x="264" y="723"/>
      <point x="262" y="800" type="curve" smooth="yes"/>
      <point x="260" y="856"/>
      <point x="217" y="885"/>
      <point x="154" y="885" type="curve" smooth="yes"/>
    </contour>
    <contour>
      <point x="182" y="830"/>
      <point x="197" y="814"/>
      <point x="197" y="793" type="curve" smooth="yes"/>
      <point x="199" y="762"/>
      <point x="184" y="740"/>
      <point x="143" y="740" type="curve" smooth="yes"/>
      <point x="110" y="740"/>
      <point x="98" y="758"/>
      <point x="96" y="780" type="curve" smooth="yes"/>
      <point x="96" y="814"/>
      <point x="113" y="830"/>
      <point x="150" y="830" type="curve" smooth="yes"/>
    </contour>
    <contour>
      <point x="146" y="655" type="move" name="_top"/>
    </contour>
  </outline>
</glyph>
<glyph name="tilde.case" format="1">
  <advance width="350"/>
  <outline>
    <contour>
      <point x="320" y="810" type="line"/>
      <point x="320" y="810"/>
      <point x="273" y="785"/>
      <point x="240" y="785" type="curve" smooth="yes"/>
      <point x="202" y="785"/>
      <point x="174" y="810"/>
      <point x="120" y="810" type="curve" smooth="yes"/>
      <point x="74" y="810"/>
      <point x="37" y="780"/>
      <point x="37" y="780" type="curve"/>
      <point x="30" y="710" type="line"/>
      <point x="30" y="710"/>
      <point x="78" y="735"/>
      <point x="111" y="735" type="curve" smooth="yes"/>
      <point x="152" y="735"/>
      <point x="186" y="710"/>
      <point x="230" y="710" type="curve" smooth="yes"/>
      <point x="276" y="710"/>
      <point x="314" y="740"/>
      <point x="314" y="740" type="curve"/>
    </contour>
    <contour>
      <point x="175" y="655" type="move" name="_top"/>
    </contour>
  </outline>
</glyph>
